<?xml version="1.0" encoding="utf-8"?><svg viewBox="0 0 512 512" xmlns="http://www.w3.org/2000/svg" xmlns:xlink="http://www.w3.org/1999/xlink"><style>:root>svg{display:none}:root>svg:target{display:block}</style><svg fill="none" viewBox="0 0 9 7" id="arrow" xmlns="http://www.w3.org/2000/svg"><path d="M7.206.968l1.275 1.277-4.24 4.244L0 2.245 1.275.968l2.966 2.969L7.206.968z" fill="#F06326"/></svg><svg viewBox="0 0 490.688 490.688" id="arrowDown" xmlns="http://www.w3.org/2000/svg"><path d="M245.213 373.415a10.663 10.663 0 01-7.552-3.115L2.994 135.633c-4.093-4.237-3.975-10.99.262-15.083 4.134-3.992 10.687-3.992 14.82 0l227.136 227.115 227.115-227.136c4.093-4.237 10.845-4.354 15.083-.262 4.237 4.093 4.354 10.845.262 15.083-.086.089-.173.176-.262.262L252.744 370.279a10.672 10.672 0 01-7.531 3.136z"/></svg><svg fill="none" viewBox="0 0 15 12" id="arrowNext" xmlns="http://www.w3.org/2000/svg"><path fill-rule="evenodd" clip-rule="evenodd" d="M9.465 11.793L14.792 6.5a.705.705 0 000-1L9.465.207a.711.711 0 00-1.003 0 .705.705 0 000 1l4.116 4.086H.71A.708.708 0 000 6c0 .39.318.707.71.707h11.868l-4.116 4.087a.705.705 0 000 .999.711.711 0 001.003 0z" fill="#fff"/></svg><svg fill="none" viewBox="0 0 15 12" id="arrowPrew" xmlns="http://www.w3.org/2000/svg"><path fill-rule="evenodd" clip-rule="evenodd" d="M5.535 11.793L.208 6.5a.705.705 0 010-1L5.535.207a.711.711 0 011.003 0 .705.705 0 010 1L2.422 5.292H14.29a.708.708 0 110 1.413H2.42l4.117 4.088a.705.705 0 010 .999.711.711 0 01-1.003 0z" fill="#fff"/></svg><svg fill="none" viewBox="0 0 141 95" id="client01" xmlns="http://www.w3.org/2000/svg"><path d="M102.95 72.848c-1.043 0-1.922-.716-1.922-1.929 0-1.047.714-1.928 1.922-1.928 1.153 0 1.921.881 1.921 1.928 0 1.213-.768 1.929-1.921 1.929zm0-6.337c-3.02 0-4.832 2.039-4.832 4.629 0 2.37 1.812 3.967 3.898 3.967.44 0 .714-.055 1.098-.11l-2.91 4.298h3.514l1.757-2.645c1.373-2.094 2.252-3.747 2.252-5.565 0-2.755-1.757-4.574-4.777-4.574zm-10.378.276h4.338v12.508h-3.13v-9.643h-2.69l1.482-2.865zm25.257 3.691c0-2.148-1.702-4.022-4.612-4.022-2.855 0-4.667 1.763-4.667 4.629v.055h3.02v-.165c0-1.323.659-2.04 1.702-2.04.934 0 1.483.607 1.483 1.488 0 .607-.33 1.213-.989 2.04l-5.655 6.722h9.609v-2.59h-3.844l2.251-2.48c1.098-1.267 1.702-2.314 1.702-3.636zm9.993 4.684c0 2.48-1.866 4.464-5.106 4.464-1.427 0-2.8-.496-3.734-1.102l.33-2.81c.933.77 2.086 1.212 3.184 1.212 1.428 0 2.142-.827 2.142-1.653 0-1.047-1.043-1.819-2.8-1.819-.659 0-1.593.11-2.416.386l.714-7.053h6.863v2.534h-4.557l-.22 1.874c2.8-.551 5.6.992 5.6 3.967zm-70.5-38.958h5.71l-2.854 9.918 4.447-1.157 2.526-8.761h5.326l-4.338 14.878 7.138-9.533 1.592-5.345h5.106l-3.074 10.524c-.11.386-.769 2.646-.275 2.646.55 0 1.922-2.425 3.46-5.18 1.647-2.976 3.129-6.172 3.733-7.99h5.216l-2.47 8.982 6.643-8.927H141L30.473 83.649l2.142-7.495 86.752-35.652h-16.911l-1.648 5.565-5.38 1.709 2.14-7.274h-2.69l-7.522 9.753-4.722 1.598c.275-2.37.66-4.739 1.208-6.998l-2.141 4.078c-1.702 3.196-3.185 5.73-5.765 5.73-1.922 0-2.8-1.763-2.8-4.132 0-.827.11-1.709.329-2.645l-7.083 9.423-5.875 1.928 2.91-10.304-4.447 1.157-3.075 10.745-6.37 2.094 2.856-9.919-6.424 8.211c-2.746 3.527-5.546 5.4-7.742 5.4-4.338 0-4.887-7.163-4.502-10.029-2.361 1.102-3.185 1.488-3.954 1.929C30.803 73.84 15.264 95 5.381 95 2.306 95 0 92.63 0 87.285c0-7.935 5.93-19.451 21.798-28.544-.44-3.14-1.537-5.73-3.46-7.384v-.33c5.382-4.133 9.5-8.817 9.5-13.005 0-1.929-1.483-2.7-3.075-2.7-2.965 0-6.918 3.692-9.115 6.833H14.55l1.757-6.007c4.063-5.4 10.542-7.328 14.111-7.328 3.624 0 6.699 1.377 6.699 5.73 0 5.18-4.448 10.525-11.091 14.548 1.537 1.708 2.525 3.692 3.13 5.896 1.592-.826 3.239-1.653 5.05-2.48 1.922-9.367 8.566-16.586 14.496-16.586 2.965 0 4.338 1.763 4.338 4.188 0 5.62-5.161 9.974-12.41 13.776-.219 1.323-.164 2.039-.164 2.81 0 2.535.55 3.748 1.538 3.748.658 0 1.427-.552 2.306-1.599l9.773-11.627 3.24-11.02zm-49.8 49.373c0 1.213.385 3.196 1.757 3.196 5.49 0 12.41-14.602 12.738-26.01C12.41 69.377 7.522 78.91 7.522 85.578zM47.11 41.273c0-.882-.33-1.488-.879-1.488-1.482 0-3.623 4.684-4.831 10.03 4.008-2.59 5.71-5.897 5.71-8.542zM65.12 28.875l3.568-11.021-9.334-6.833h11.53L74.454 0l3.568 11.02h11.585l-9.388 6.834 3.568 11.02-9.334-6.832-9.334 6.833z" fill="#F9FDFF"/></svg><svg fill="none" viewBox="0 0 194 53" id="client02" xmlns="http://www.w3.org/2000/svg"><path fill-rule="evenodd" clip-rule="evenodd" d="M1.075.73l50.87.171-.172 51.269-50.87-.171L1.075.73zm40.137 6.964c.444-.938 1.332-1.717 2.501-1.713 1.534-.072 2.898 1.115 3.01 2.876-.001.246-.125 1.1-.209 1.302l-5.948 9.676c-.605 1.02-.497 1.8-.254 2.66l8.864 23.088-36.683-.124c-3.264-.01-5.798-2.676-5.787-5.991L6.686 8.97c.137-4.05 5.74-4.033 5.93-.104l-.097 28.736c-.003.905.793 1.888 1.762 1.891l26.906.09-6.873-16.704c-.236-.533-.323-1.11-.32-1.764.002-.73.33-1.834.777-2.815l6.441-10.606zM26.303 8.912c.007-1.964 1.447-2.961 2.886-2.966 1.44-.005 2.88.982 2.873 2.985l-.07 20.728c-.015 4.74-3.526 7.88-7.832 7.865-4.191-.014-7.693-3.177-7.677-7.917l.07-20.728c.013-3.928 5.779-3.909 5.766.02l-.07 20.562c-.009 2.74 3.975 3 3.985.014l.07-20.563z" fill="#fff"/><path d="M61.891 6.96l-.045 13.564c-.012 3.39-.36 5.274-3.1 5.265-.512-.002-.854-.003-1.365-.191l-.02 5.838c1.023.383 1.708.385 2.565.388 7.7.026 8.061-5.814 8.073-9.208l.032-9.794 4.448.015-.062 18.65 6.156.02.083-24.49L61.89 6.96zM80.71 7.023l8.324 17.739-3.1 6.77 6.671.022L102.61 7.097l-6.672-.023-3.628 10.349-4.243-10.375-7.357-.025zM104.409 31.594l6.16.02.036-10.55 6.294 10.572 7.868.026-8.68-12.65L124.68 7.17l-7.357-.025-6.706 10.338.035-10.36-6.16-.021-.083 24.491z" fill="#fff"/><path d="M134.861 32.452c8.211.028 11.995-6.367 12.017-12.96.022-6.405-3.72-12.825-11.931-12.853-8.041-.027-11.826 6.368-11.847 12.772-.022 6.594 3.719 13.014 11.761 13.041zm.019-5.84c-2.739-.01-5.467-2.47-5.451-7.18.016-4.708 2.76-6.96 5.499-6.951 2.908.01 5.637 2.28 5.621 6.989-.016 4.71-2.76 7.15-5.669 7.141zM150.001 7.256l-.082 24.491 5.987.02 8.602-14.665-.049 14.694 5.99.02.083-24.491-5.991-.02-8.602 14.668.049-14.697-5.987-.02zm10.439-1.284c2.567.009 5.136-.925 6.346-3.748L163.197.706c-.521 1.883-2.061 2.065-2.746 2.063-.512-.002-2.223-.195-2.559-2.08l-3.596 1.493c1.015 2.83 3.751 3.782 6.144 3.79zM177.034 7.347l-.046 13.564c-.011 3.39-.363 5.274-3.099 5.265-.512-.002-.854-.003-1.369-.191l-.019 5.838c1.025.383 1.71.385 2.565.388 7.699.026 8.061-5.814 8.072-9.208l.033-9.794 4.448.015-.063 18.65 6.16.02.082-24.49-16.764-.057zM57.364 45.18l.866.004.016-4.544 5.061.017-.015 4.544.867.003.03-8.908-.867-.003-.012 3.648-5.062-.017.012-3.648-.866-.003-.03 8.908zM66.364 45.211l4.748.016.002-.715-3.88-.013.013-3.916 3.726.012.002-.715-3.726-.013.01-2.843 3.88.013.002-.718-4.747-.016-.03 8.908zM76.824 45.246l.858.003.004-1.226.36.002c2.857.01 4.044-1.691 4.05-3.477.007-2.09-1.521-3.479-4.026-3.487l-.36-.002.003-1.07-.858-.002-.003 1.07-.349-.002c-2.52-.008-4.054 1.37-4.061 3.461-.006 1.785 1.17 3.494 4.038 3.504h.348l-.004 1.226zm.883-7.471c2.865.047 3.49 1.399 3.485 2.77-.007 2.14-1.418 2.692-3.504 2.76l.019-5.53zm-.876 5.527c-2.085-.081-3.493-.643-3.486-2.783.005-1.372.636-2.72 3.504-2.747l-.018 5.53zM85.21 45.274l.834.003.027-8.19 2.35.008.003-.718-5.53-.019-.003.719 2.347.008-.027 8.19zM89.418 45.288l.975.004 2.364-3.905.746.002-.013 3.913.87.003.03-8.908-2.039-.007c-2.674-.009-3.066 1.778-3.069 2.568-.005 1.506 1.161 2.421 2.537 2.376l-2.4 3.954zm4.088-4.617l-1.253-.004c-.71-.003-2.118-.091-2.113-1.793.006-1.651 1.5-1.768 2.209-1.765l1.169.004-.012 3.558zM96.578 45.313l.867.002.015-4.544 5.061.017-.015 4.545.867.002.03-8.908-.867-.003-.012 3.649-5.062-.017.012-3.649-.866-.002-.03 8.908zM104.637 45.34l.87.003 1.225-2.889 3.723.013 1.209 2.896.866.003-3.933-9.151-3.96 9.125zm2.412-3.588l1.542-3.64 1.555 3.65-3.097-.01zM113.533 45.37l.975.003 2.364-3.905.746.002-.013 3.913.867.003.03-8.908-2.036-.007c-2.674-.009-3.066 1.778-3.069 2.569-.005 1.505 1.161 2.42 2.534 2.375l-2.398 3.955zm4.088-4.618l-1.253-.004c-.712-.003-2.122-.091-2.116-1.793.006-1.651 1.502-1.768 2.211-1.765l1.169.004-.011 3.558zM123.619 45.404l.867.002.015-4.314 3.949 4.328 1.132.003-4.263-4.608 4.222-4.3-1.061-.003-3.978 4.142.014-4.156-.867-.003-.03 8.909zM135.174 45.722c2.628.009 4.79-1.89 4.8-4.699.009-2.806-2.14-4.71-4.768-4.719-2.591-.009-4.754 1.881-4.763 4.687-.01 2.809 2.14 4.723 4.731 4.731zm.002-.753c-2.156-.007-3.837-1.642-3.83-3.975.008-2.333 1.701-3.991 3.857-3.984 2.159.007 3.875 1.677 3.867 4.01-.008 2.333-1.734 3.957-3.894 3.95zM141.152 45.462l.833.003.839-6.572 3.231 6.987 3.241-6.966.848 6.578.78.003-1.184-9.264-3.679 7.948-3.662-7.972-1.247 9.255zM152.583 36.593l-.03 8.908.867.003.028-8.19 5.061.017-.027 8.19.867.003.029-8.909-6.795-.022zM160.616 45.528l.866.003 1.225-2.889 3.727.013 1.205 2.896.867.003-3.933-9.151-3.957 9.125zm2.408-3.588l1.543-3.64 1.554 3.65-3.097-.01zM169.736 45.559l.867.002.015-4.544 5.062.017-.015 4.544.87.003.03-8.908-.87-.003-.013 3.649-5.061-.017.012-3.649-.867-.003-.03 8.909zM178.767 36.68l-.031 9.31 6.077-7.43-.024 7.049.855.003.031-9.26-6.061 7.38.023-7.048-.87-.003zM187.596 45.618l.974.004 2.364-3.905.746.002-.013 3.913.87.003.03-8.908-2.036-.007c-2.677-.009-3.069 1.778-3.071 2.568-.005 1.506 1.161 2.421 2.536 2.376l-2.4 3.954zm4.087-4.617l-1.253-.004c-.709-.003-2.118-.091-2.113-1.793.006-1.651 1.499-1.768 2.212-1.765l1.166.004-.012 3.558z" fill="#fff"/></svg><svg fill="none" viewBox="0 0 135 53" id="client03" xmlns="http://www.w3.org/2000/svg"><path d="M128.141.738c-.213-.3.085-.77.451-.654.375.322.406 1.056.991 1.092.804.245 1.138-.663 1.475-1.176.249.11.556.305.415.642-.142.505-.756.757-1.248.755-.708.022-1.735.11-2.084-.66zM10.705 1.967c1.283-.288 2.578.491 3.134 1.621.265.69.34 1.456.187 2.18-.112.733-.637 1.316-1.185 1.78-1.146.962-3.07.674-3.92-.538-.753-.949-.836-2.311-.39-3.41.44-.811 1.206-1.547 2.174-1.633zm.33.262c-.345.084-.717.171-.993.409-.662.695-.776 1.717-.715 2.63-.016.737.174 1.504.683 2.06.642.617 1.73.518 2.388-.018.494-.446.638-1.147.653-1.784-.023-.768.028-1.577-.32-2.29-.297-.626-.976-1.103-1.695-1.007zM18.72 2.858a2.88 2.88 0 012.294-.925c.544.02 1.051.232 1.577.348.121-.146.248-.289.395-.41.041.7.082 1.4.084 2.1-.245-.438-.429-.93-.804-1.281-.87-.76-2.464-.555-2.96.54a4.556 4.556 0 00-.099 3.367c.396.95 1.602 1.228 2.533 1.047.645-.192 1.01-.777 1.491-1.193-.045.407-.38.693-.649.972-.878.848-2.387.955-3.375.237-.782-.49-1.273-1.388-1.3-2.302-.102-.902.254-1.803.814-2.5zM47.19 1.931l.204.005c.722 1.688 1.42 3.385 2.134 5.077.148.375.443.7.856.788l.043.123c-.767.01-1.532.01-2.298.007l.018-.164c.21-.046.426-.1.635-.16a9.1 9.1 0 00-.595-1.603c-.77-.005-1.54-.006-2.31.004-.179.446-.41.874-.54 1.337-.104.352.416.36.635.428l.018.156c-.61.003-1.218.004-1.825 0a9.32 9.32 0 01.033-.144c.23-.092.487-.185.623-.406.204-.315.303-.681.454-1.022.285-.651.578-1.3.831-1.966.305-.844.73-1.637 1.085-2.46zm-1.134 3.715c.674.03 1.348.018 2.024.016-.37-.771-.676-1.57-1-2.36-.448.73-.718 1.548-1.024 2.344zM63.063 2.628a2.847 2.847 0 012.052-.692c.534-.037.994.305 1.523.305.159-.084.29-.21.438-.313.039.671.117 1.339.193 2.006l-.21-.003c-.196-.446-.338-.95-.73-1.271-.727-.577-1.875-.57-2.561.07-.898 1.08-1.05 2.716-.418 3.958.437.87 1.532 1.121 2.424.96.674-.158 1.017-.81 1.575-1.154-.536 1.439-2.43 2.051-3.765 1.353-1.11-.55-1.708-1.812-1.599-3.011.068-.833.476-1.63 1.078-2.208zM.102 2.033c1.604.058 3.21.028 4.814.035-.014.46-.035.92-.064 1.38-.05-.024-.107.035-.122-.066-.041-.279-.14-.668-.312-.834-.837-.268-1.737-.115-2.6-.148.003 1.333-.009 2.667-.005 4 .01.372-.004.75.094 1.113.154.186.607.217.84.263.074.015.04.085.04.16-.803.022-1.779.008-2.65-.007.003-.037.006-.111.007-.148.236-.067.648.018.767-.277.18-.889.076-1.805.105-2.704-.036-.769.093-1.556-.1-2.312-.173-.257-.541-.23-.811-.332l-.003-.123zM26.552 2.024c.803.035 1.609.05 2.414.018l.03.113a3.884 3.884 0 00-.711.285c.454 1.197 1.204 2.252 1.836 3.36.197-.458.41-.91.583-1.377.24-.642.574-1.256.67-1.943a12.746 12.746 0 00-.547-.314l.025-.133c.601.016 1.206.037 1.807.004l.018.118c-.375.16-.76.38-.913.783-.323.672-.584 1.374-.893 2.054-.369.868-.677 1.787-1.265 2.54-.286.387-.76.647-1.254.576-.24-.03-.496-.195-.543-.445.025-.151.024-.275.177-.342.23-.036.308.097.435.15.211.088.378.054.76-.101.245-.13.358-.401.516-.613-.4-.725-.77-1.468-1.233-2.155-.44-.649-.687-1.41-1.192-2.017a3.765 3.765 0 00-.736-.434l.016-.127zM35.942 2.107c1.648-.093 3.3.009 4.949-.074a6.426 6.426 0 01-.024.13c-.254.094-.632.06-.747.347-.172.659-.095 1.35-.117 2.023.022 1.046-.074 2.116.187 3.14.223.03.45.059.674.09a22.73 22.73 0 01-.013 1.96c-.306-.415-.386-.967-.772-1.327-.483-.438-1.197-.45-1.812-.476-.581.02-1.191-.067-1.746.144-.73.178-1.19.883-1.323 1.582l-.152.026a97.218 97.218 0 01.005-1.879c.476-.118.939-.393 1.15-.849.67-1.307.783-2.83.71-4.27-.084-.443-.635-.444-.969-.567zm1.525.295c-.111 1.044-.12 2.102-.348 3.131-.137.743-.493 1.42-.882 2.06.967.012 1.935.024 2.9-.046.003-1.715 0-3.43 0-5.147-.557 0-1.113 0-1.67.002zM56.359 2.046c.678.022 1.405.3 1.734.93.345.625.173 1.486-.386 1.934-.613.541-1.508.41-2.256.31-.006.661-.023 1.322-.006 1.982.005.157.03.33.148.445.207.076.438.077.656.114l.008.168c-.855.004-1.71.005-2.563 0 .012-.04.035-.124.048-.165.215-.015.44-.027.66-.04.235-1.763.054-3.552.105-5.326-.274-.115-.563-.193-.844-.286a47.846 47.846 0 012.696-.066zm-.909.403c-.003.837-.003 1.675-.002 2.512.38.033.773.067 1.142-.03.842-.413.874-1.74.165-2.297-.369-.293-.872-.182-1.305-.185zM88.338 2.03c1.537.055 3.077.057 4.615.01.048.43.075.864.095 1.299l-.167-.025c-.122-.344-.26-.835-.69-.876-.7-.066-1.404-.039-2.106-.04v2.274c.619-.037 1.27.082 1.875-.076.268-.184.304-.55.455-.82.019.725.02 1.45.006 2.176-.14-.275-.183-.635-.454-.82-.607-.183-1.258-.112-1.882-.142-.001.82-.003 1.64.006 2.46.048.049.097.097.148.145.694-.012 1.41.072 2.094-.086.562-.162.746-.76 1.103-1.156-.096.531-.29 1.038-.443 1.554-1.555.045-3.11.024-4.664.02l.052-.134c.237-.067.55-.028.747-.212.124-.238.043-.528.087-.78.004-1.223.005-2.447-.001-3.67-.024-.253.02-.564-.152-.78-.206-.142-.477-.131-.712-.185l-.012-.137zM96.824 2.096c.87-.105 1.747-.013 2.62-.005-.305.1-.793.155-.859.55-.08.717-.042 1.44-.042 2.159.916.001 1.834.001 2.753-.001-.011-.72.046-1.444-.034-2.16-.04-.402-.545-.414-.841-.478l.044-.125c.859.027 1.719.021 2.58.03-.296.129-.592.25-.878.396.043 1.69-.088 3.392.061 5.075.175.21.525.168.781.242l.007.128a60.1 60.1 0 01-2.593.024l.004-.168c.258-.024.522-.057.778-.111.098-.851.098-1.71.073-2.565a45.519 45.519 0 00-2.715-.006c-.018.845-.072 1.7.061 2.54.286.074.58.132.856.242-.87.087-1.744.08-2.615.066l.007-.142c.277-.036.559-.095.811-.222-.023-1.703-.011-3.407-.008-5.111-.27-.15-.563-.25-.85-.358zM106.321 2.03c.883.043 1.769.031 2.654.053-.289.124-.728.144-.871.475-.064.745-.032 1.495-.028 2.242l2.683-.001c0-.77.034-1.54-.025-2.309-.179-.26-.536-.285-.804-.402a44.015 44.015 0 012.603-.005c-.231.088-.476.137-.682.273-.222.157-.181.482-.207.712-.034 1.221-.013 2.444-.015 3.666.007.297-.019.68.227.903.2.084.426.086.642.126l.011.166c-.856.005-1.711.005-2.565 0l.049-.152c.233-.034.478-.068.714-.107.066-.866.056-1.735.054-2.604-.896-.001-1.791 0-2.685 0 .011.808-.062 1.625.041 2.426.173.29.608.222.892.375-.892.083-1.787.077-2.679.062l.004-.152c.227-.048.498-.015.711-.136.181-.124.091-.408.147-.576.033-1.222.008-2.444.014-3.666-.033-.32.036-.667-.106-.967-.198-.195-.506-.203-.755-.273a47.84 47.84 0 00-.024-.13zM120.793 2.101c.841-.098 1.696-.026 2.543-.071l.049.115c-.223.082-.537.026-.713.218-.226.415-.134.918-.169 1.37.027 1.302-.09 2.616.109 3.91.279.062.567.107.834.219-.875.091-1.754.08-2.63.065l.056-.128c.205-.06.457-.06.643-.186.194-.135.142-.422.176-.614.025-1.332.026-2.667-.001-3.999-.013-.228-.008-.536-.229-.68-.209-.105-.453-.147-.668-.219zM71.03 2.071c1.631-.008 3.262-.004 4.894-.003l-.006 1.403-.145-.022c-.09-.347-.2-.774-.553-.945-.451-.107-.92-.096-1.377-.128.008 1.453-.025 2.905.004 4.358-.007.315.06.624.117.932l.677.08.009.185c-.834.002-1.666.002-2.498-.004.013-.034.04-.104.052-.14.255-.043.515-.098.764-.176v-5.23c-.448.027-.918-.012-1.346.149-.353.174-.423.604-.554.936l-.167-.037c.055-.451.116-.903.13-1.358zM79.238 2.108a55.155 55.155 0 013.062-.049 2.404 2.404 0 011.593.493c.452.342.659.999.435 1.525-.14.408-.511.67-.882.857.466.124.942.412 1.131.87.101.387.112.826-.068 1.193-.213.598-.902.839-1.48.908-1.253.073-2.509.014-3.762.02l.05-.134c.218-.054.484-.02.686-.143.227-.213.09-.58.15-.847.012-1.45-.016-2.901.005-4.351-.287-.16-.609-.243-.92-.342zm1.787.36a396.3 396.3 0 000 2.207c.605.045 1.228.099 1.822-.065.709-.296.823-1.333.28-1.833-.575-.482-1.408-.585-2.102-.31zm0 2.65c-.003.807-.003 1.615 0 2.422.71.043 1.532.217 2.16-.198.735-.471.564-1.69-.2-2.025-.608-.325-1.303-.26-1.96-.2zM115.822 2.11a21.16 21.16 0 012.704-.01c-.249.11-.529.14-.769.258-.182.113-.162.349-.186.537-.048.583-.036 1.169-.035 1.754.951.057 2.173-.039 2.817.824.617.861.014 2.192-1.008 2.382-1.159.161-2.337.055-3.502.066l.062-.122c.234-.07.6-.028.736-.29.119-.262.058-.565.094-.841.002-1.223.02-2.446-.012-3.668-.024-.204.014-.515-.209-.636-.226-.105-.464-.162-.692-.255zm1.718 2.923c-.002.858-.002 1.717 0 2.576.447.036.941.106 1.343-.136.723-.35.961-1.47.348-2.02-.462-.404-1.104-.469-1.691-.42zM126.636 2.097c.895-.04 1.795-.052 2.692-.001-.225.104-.474.165-.694.271-.2.135-.181.43-.203.633-.052 1.16-.014 2.321-.007 3.482a76.91 76.91 0 002.537-3.217c.221-.215.312-.633.067-.86-.202-.203-.519-.2-.775-.296.875-.056 1.755-.06 2.632-.015-.276.17-.738.17-.805.548-.087.893-.033 1.794-.048 2.69.008.777-.04 1.562.114 2.329l.693.082.008.188c-.853.002-1.705.004-2.555-.002l.009-.15c.236-.092.774.018.829-.34.088-1.305.022-2.615.028-3.92-.776.967-1.527 1.954-2.291 2.93-.229.283-.543.592-.433.994.173.33.613.269.913.425-.896.081-1.794.076-2.69.06l.052-.134c.236-.067.552-.03.748-.213.124-.238.04-.528.087-.78-.008-1.378.02-2.758-.008-4.135-.047-.423-.609-.42-.9-.569zM.76 10.736c.19.017.38.04.57.066.067.68.273 1.366.708 1.906.29.297.698.505 1.122.488.529.021 1.101.053 1.572-.231 1.134-.626 2.436-.905 3.73-.888 1.008.066 2.045.12 2.977.547.386.24.96.614 1.055.71 1.126.848 1.83 1.746 2.423 3.053a7.894 7.894 0 01.8 3.807c-.011 3.777-.004 7.553-.004 11.33-.015 2.14-.711 4.347-2.264 5.884-.311.297-.643.574-.917.906 2.227-.453 4.392-1.15 6.579-1.76.059-6.786.002-13.573.029-20.36.06-.933-.212-1.916-.873-2.602-.708-.697-1.761-.748-2.694-.812a16.582 16.582 0 01-.015-.444c3.922-.015 7.844.003 11.767-.01 1.502-.02 3.092.267 4.322 1.176.449.338.81.784 1.067 1.28.38.82.455 1.73.554 2.616.093 2.252-.032 4.507.064 6.759.085 1.03-.22 2.114-.912 2.897-.614.811-1.529 1.314-2.45 1.708-.429.187-.913.145-1.37.167-1.343.003-2.685-.011-4.027-.003-.001 1.978-.005 3.958 0 5.937 1.103-.247 2.188-.568 3.295-.797 2.22-.425 4.424-.943 6.665-1.254.65-.137 1.312-.195 1.965-.315.048-4.345.014-8.69.018-13.037-.075-1.428-.018-2.862-.124-4.287a3.364 3.364 0 00-1.433-1.83c-.394-.249-.878-.287-1.325-.372-.028-.168-.056-.337-.078-.504 2.417-.005 4.834-.007 7.25 0 1.473 4.953 2.831 9.939 4.34 14.881.267-1.031.506-2.074.864-3.08.14-.357.142-.746.256-1.11.766-2.836 1.486-5.684 2.235-8.525.22-.76.416-1.526.593-2.297 6.003 0 12.008-.027 18.012.013a8.508 8.508 0 01-.049.625c-.8.144-1.695.252-2.256.908-.475.537-.561 1.28-.544 1.967-.032 4.402-.007 8.806-.014 13.21.19-.006.408 0 .606-.001.522-2.011.879-4.06 1.41-6.069.115-.341.17-.696.228-1.05.704-3.208 1.476-6.4 2.2-9.603 2.64-.012 5.28-.004 7.92-.006.058.25.088.505.117.761-.98.108-1.997.326-2.809.911a1.508 1.508 0 00-.636 1.17c-.105 1.561-.004 3.127-.048 4.69-.117 3.019-.04 6.04-.06 9.062 3.134-.054 6.265.09 9.396.206 0-5.394.003-10.787-.001-16.18-.586-.038-1.187.167-1.551.64-.751.926-1.13 2.081-1.453 3.21-.658 2.348-.998 4.769-1.247 7.189-.23 1.39-.227 2.802-.37 4.201-.218-.005-.403.003-.612.001-.002-5.287-.002-10.573 0-15.86h15.974c.005 2.332-.007 4.664.003 6.997.1 2.966.075 5.936.043 8.903-.204.008-.388.022-.584.032-.106-2.08-.172-4.165-.477-6.229-.157-1.613-.472-3.202-.85-4.777-.323-1.185-.695-2.388-1.411-3.403-.377-.603-1.03-1.042-1.752-1.088-.04 2.653.06 5.309-.068 7.96-.014 3.019-.002 6.038-.004 9.056 2.206.043 4.395.329 6.572.665a537.197 537.197 0 002.574-13.316c.165-.826.3-1.67.23-2.515-.056-.578-.367-1.171-.945-1.383-.858-.28-1.783-.246-2.663-.098a22.777 22.777 0 01-.075-.67c2.895-.004 5.79 0 8.685-.003 1.17 5.366 2.257 10.752 3.41 16.123.218 1.184.547 2.343.746 3.53.055.185.039.456.262.533.704.274 1.421.52 2.146.738-.004-1.576.029-3.153-.055-4.728-.012-.685-.09-1.37-.052-2.056a7.007 7.007 0 01.694-2.225c.41-.747 1.063-1.374 1.866-1.688 1.248-.494 2.64-.408 3.941-.194-.684-.407-1.256-1.087-1.331-1.896-.15-1.512-.159-3.035-.173-4.554-.409.52-.733 1.15-1.361 1.443-.849.36-1.84.426-2.706.09-.794-.22-1.42-.834-1.794-1.544-.192-.593-.436-1.253-.135-1.86a2.273 2.273 0 011.132-1.413 4.594 4.594 0 012.638-.474c.678.152 1.359.366 1.957.723.432.398.941.888.936 1.52.091 1.998.181 3.997.228 5.997.086.446.308.906.715 1.148.48.386 1.09.518 1.677.656.111-2.643.125-5.293.018-7.937.022-.392-.105-.805-.388-1.085-.606-.552-1.493-.338-2.234-.456l-.002-.389c3.727.01 7.454-.024 11.181.018l.028.413c-.653.063-1.342.163-1.869.584-.871.592-1.085 1.737-1.019 2.716.087 2.07.071 4.143.073 6.216.722-.102 1.473-.298 2.012-.815.481-.435.656-1.107.662-1.733.004-1.356.077-2.711.075-4.068.011-.749.021-1.558.478-2.193.552-.97 1.742-1.367 2.81-1.338.881.013 1.854.028 2.61.543.263.206.588.376.725.697.156.37.324.734.475 1.105.209.51-.144 1.02-.393 1.447-.706 1.22-2.233 1.885-3.617 1.603-.562-.123-1.132-.316-1.562-.71-.317-.254-.533-.6-.764-.926-.061 1.493.172 2.997-.047 4.483-.204.722-.769 1.255-1.277 1.78.769.08 1.528.249 2.307.23.694-.019 1.432.075 2.019.473.894.575 1.475 1.528 1.729 2.54.48 1.46.325 3.018.347 4.528-.047 2.22.152 4.437.031 6.656-.018.707.219 1.471.81 1.909.677.537 1.559.587 2.372.774.039.175.031.334.084.514-1.207-.008-2.41.067-3.611.17-1.19.142-2.358-.197-3.489-.52-1.366-.498-2.712-1.057-4.091-1.522.166.377.402.75.777.953.457.302 1.023.336 1.54.476-.001.17.001.34.007.511-3.803.152-7.611.044-11.416.075-.023-.2.015-.378.011-.573.715-.205 1.458-.499 1.932-1.097.508-.64.685-1.46.761-2.254-.842-.32-1.704-.601-2.596-.74-.196 1.655-.897 3.445-2.463 4.263-1.079.628-2.358.462-3.549.466-3.26-.133-6.524-.032-9.786-.067-.03-.216-.042-.422-.073-.634.73-.087 1.529-.152 2.102-.667.566-.5.628-1.34.516-2.035-.234-1.504-.502-3.006-.615-4.526-1.866-.316-3.756-.462-5.619-.805-.338 1.858-.677 3.715-1.003 5.575-.043.325-.107.658-.062.985.135.51.502.957 1.005 1.15.759.295 1.594.23 2.392.303-.002.174-.001.348.001.523-2.015.012-4.03-.023-6.042.016-2.19.115-4.385.003-6.575.072-2.215.093-4.433.027-6.648.045l.001-.65c.978-.081 2-.022 2.934-.365.646-.365 1.129-1.069 1.186-1.812.13-1.408.095-2.823.124-4.234.062-1.044.056-2.09.05-3.134-2.305.048-4.608-.097-6.913-.067-.896.004-1.79-.05-2.685-.072-.046 2.068.113 4.134.062 6.203-.002.783-.054 1.716.563 2.312.61.776 1.677.895 2.594.978 0 .257.001.515.004.774-2.798.001-5.595.002-8.392.001-1.346-.023-2.691-.09-4.038-.07 0-.213.021-.414.03-.624.993.044 2.019-.258 2.718-.987.38-.413.637-.93.777-1.47.176-2.341.066-4.69.113-7.035a37.64 37.64 0 01-1.998-.077c-.481 2.197-1.04 4.377-1.523 6.574-.29 1.182-.524 2.377-.836 3.553-6.313.005-12.626.003-18.938.002l.002-.634c.876-.046 1.87-.067 2.566-.68.666-.493.896-1.363.912-2.151.036-1.67-.001-3.341.01-5.011-.92.009-1.834.09-2.749.158-.824 2.699-1.55 5.428-2.328 8.14-.33-.829-.502-1.707-.763-2.558-.474-1.562-.91-3.136-1.376-4.7-1.13.173-2.248.418-3.388.52-.009 1.393-.003 2.787.1 4.176.054.66.412 1.323 1.048 1.596.947.486 2.05.247 3.063.297-.01.282-.025.563-.044.845-3 .005-6 .002-9 .002v-.661c.971-.069 2.11.235 2.945-.416.863-.547 1.179-1.622 1.132-2.588a61.949 61.949 0 01-.056-2.89c-1.33.103-2.656.3-3.969.545-.885.259-1.813.345-2.68.66-1.702.45-3.409.884-5.127 1.262-.034.841-.085 1.792.54 2.455.756.845 1.967.913 3.02 1l.07.63c-4.152.008-8.304.003-12.456.002v-.791c.995-.089 2.235.2 2.975-.652.366-.31.389-.807.477-1.243-1.39.345-2.746.819-4.146 1.131-1.1.311-2.199.636-3.275 1.022-1.115.443-2.311.59-3.485.797-.958.13-2.016.163-2.972-.024-.552-.269-.844-.39-1.086-.517-1.115-.751-1.947-1.239-2.746-2.354C.549 35.935.026 34.365.07 32.79c.005-1.048-.076-2.095-.07-3.142.215.004.433.016.65.026.028 1.128.058 2.256.098 3.383-.005.446.12.876.228 1.306.314 1.081.709 2.195 1.518 3.017a4.086 4.086 0 002.243 1.294c1.12.214 2.367.23 3.374-.37.833-.428 1.305-1.29 1.597-2.141.39-1.127.285-2.338.3-3.508-.027-3.1.037-6.203-.03-9.303-.235.398-.339.855-.544 1.267-.445.957-1.198 1.801-2.168 2.252-1.083.354-2.245.193-3.362.268-.547.042-1.082.396-1.29.905-.158.48-.223.99-.415 1.462-.317-1.48-.566-3.094.045-4.532.403-1.062 1.416-1.752 2.459-2.113 1.075-.395 2.233-.321 3.357-.343.827-.035 1.672-.584 1.84-1.421.216-1.198.063-2.427.11-3.636-.025-1.166.049-2.45-.58-3.492-.35-.647-1.089-.927-1.754-1.128-.828-.236-1.736-.054-2.446.416-.68.392-1.18 1.003-1.753 1.523-.45.41-.655.991-.86 1.545-.688 1.99-1.21 4.062-1.295 6.172l-.528.033c-.103-1.6-.036-3.202-.052-4.803.012-2.33-.025-4.661.016-6.992zm53.078 3.524c-.308.548-.498 1.168-.472 1.8.005 4.555-.002 9.11.005 13.664 1.896-.223 3.811-.251 5.7-.536 0-4.243.012-8.485-.004-12.727-.008-1.131-.319-2.413-1.316-3.084-1.233-.91-3.143-.379-3.913.883zm-29.131-1.118c.006 3.352-.14 6.7-.14 10.052-.053 1.64-.096 3.28-.04 4.92.743 0 1.51.064 2.233-.153.542-.168.874-.751.83-1.3.014-3.888-.01-7.777.01-11.666-.045-.474.11-1.075-.324-1.417-.67-.692-1.72-.474-2.57-.436zm73.549 3.299c-.694 3.626-1.35 7.26-2.043 10.885 1.296-.001 2.593.002 3.891-.004-.067-.674-.215-1.335-.334-2-.453-2.97-1.035-5.917-1.514-8.881zM37.221 20.5c-.065 3.904-.018 7.809-.025 11.713 1.068-.197 2.138-.383 3.199-.615-.447-1.33-.699-2.721-1.212-4.03-.135-.451-.166-.928-.319-1.376-.55-1.896-1.094-3.795-1.643-5.692zm9.248 5.105c-.473 1.706-.948 3.412-1.423 5.117.89-.092 1.78-.178 2.667-.299.032-3.171.02-6.344.005-9.516-.467 1.552-.84 3.13-1.249 4.698zm20.538-2.205c-.404 1.866-.894 3.714-1.247 5.59.585 0 1.17-.005 1.756-.021.02-2.534.04-5.07-.014-7.603-.213.665-.312 1.36-.495 2.034zm48.768.106c-.758.505-1.071 1.48-1.055 2.35-.003 2.887-.002 5.774.004 8.661.933.244 1.872.467 2.811.69.01-4.013.003-8.028.003-12.042-.603-.139-1.248.014-1.763.341zm7.337-.335c-.002 1.198-.021 2.396.031 3.593.09 2.117-.017 4.237.062 6.356.065 1.275.019 2.552.066 3.827 1.232.453 2.432.992 3.672 1.429-.296-.67-.873-1.254-.929-2.01-.113-.632-.221-1.267-.217-1.91-.014-2.889.013-5.778-.004-8.667.008-.729-.173-1.501-.682-2.051-.524-.523-1.302-.577-1.999-.567zm-27.15 5.456c-.143.62-.209 1.256-.313 1.883 1.679.271 3.355.56 5.046.756-.147-.975-.298-1.95-.345-2.937-1.3.047-2.593-.112-3.889-.135-.363-.197-.454.221-.5.433zm-31.73 1.03c.02.408.044.816.094 1.222.176-.406.325-.823.513-1.225-.198.004-.419-.004-.608.004zm-10.862.875l-.006 5.256c.022.511-.04 1.06.208 1.532.275.603.636 1.277 1.305 1.519.81.364 1.766.386 2.603.09.594-.21 1.076-.684 1.356-1.24.253-.621.233-1.311.242-1.968-.005-1.892-.003-3.784-.006-5.676-1.901.159-3.8.346-5.702.487zm34.835-.02c.112 1.69.049 3.385.067 5.078a6.05 6.05 0 00.242 1.633c.238.845.894 1.57 1.727 1.873.862.263 1.96.291 2.637-.401.733-.847.795-2.008 1.007-3.052.197-1.474.585-2.914.764-4.391-1.43-.349-2.904-.482-4.368-.585-.69-.072-1.38-.165-2.076-.155zm18.945 3.049c.388 1.697.694 3.412 1.057 5.114.139.283.529.25.782.32.328-1.57.098-3.19.151-4.78-.66-.23-1.316-.472-1.99-.654zM6.987 43.011c.652-.031 1.286-.182 1.928-.284-.483 1.743-1.022 3.47-1.526 5.207.712-.74 1.145-1.805 2.136-2.239.293-.14.696-.135.93.11.23.233.178.61.199.903-.146 1.25-.514 2.505-1.26 3.536-.3.429-.773.798-1.333.737-.323-.081-.714-.25-.8-.606-.026-.289.245-.564.527-.588.271.077.416.364.678.46a.405.405 0 00.31-.15c.4-.527.55-1.184.726-1.808.192-.653.233-1.336.25-2.011-.292-.023-.592.048-.817.243-.636.522-1.036 1.26-1.471 1.941-.437.636-.565 1.404-.826 2.115a169 169 0 00-.813.004c.396-1.655.903-3.283 1.427-4.901.169-.787.508-1.544.503-2.36a41.9 41.9 0 00-.768-.083v-.226zM22.08 43.043c.286-.073.582-.114.879-.114.587.035 1.103.354 1.677.45.227-.067.349-.288.487-.462l.182.044c-.119.534-.31 1.052-.367 1.6-.053.217-.086.551-.154.88-.038.187-.226.088-.226.088-.057-.498.058-1.088-.272-1.526-.568-.818-2.053-.9-2.548.034-.078.346-.124.758.081 1.076.57.923 1.525 1.522 2.164 2.39.538.953.23 2.403-.821 2.878-.722.48-1.647.43-2.436.158-.294-.094-.586-.212-.902-.199-.258.04-.378.253-.489.448 0 0-.088-.02-.124-.02.078-.471.196-.932.323-1.39.104-.38.296-1.527.296-1.527l.153.025c.031.66-.02 1.37.42 1.916.61.68 1.868.787 2.49.064.297-.39.424-.926.263-1.397-.511-1.158-1.696-1.815-2.318-2.897-.511-1.006.23-2.217 1.242-2.519zM.95 43.057c1.905-.007 3.81-.01 5.714.002-.249.513-.39 1.466-.52 2.14 0 0-.104-.012-.246-.023-.04-.383.04-.772-.028-1.15a.477.477 0 00-.415-.392c-.448-.059-.901-.047-1.35-.055-.346 1.234-.73 2.456-1.067 3.691-.269.89-.594 1.78-.678 2.711.097.443.657.374 1.006.428l-.041.151c-1.085.035-2.17.027-3.256.02l.014-.155c.324-.092.73-.06.984-.315.141-.168.225-.376.29-.582.352-1.243.696-2.489 1.095-3.717.332-.71.437-1.495.665-2.24-.614.05-1.314-.062-1.833.348-.414.22-.463.79-.625 1.177-.105.029-.225.005-.33.035.26-.676.384-1.391.622-2.074zM46.417 43.075c1-.032 2.002-.028 3.002-.019a16.96 16.96 0 00-.047.206c-.298.083-.651.112-.87.356-.33.391-.385.909-.564 1.369-.179.475-.278.973-.409 1.461 1.145.006 2.29.003 3.436.006.254-.927.635-1.834.72-2.796-.09-.378-.571-.302-.871-.37a7.09 7.09 0 01.033-.213 68.521 68.521 0 013.075-.016 15.36 15.36 0 00-.056.192c-.352.094-.8.15-1.004.494-.216.367-.287.793-.411 1.195-.42 1.406-.863 2.806-1.269 4.216-.048.332-.282.77-.008 1.065.221.105.479.133.718.193-.01.036-.025.11-.034.145-.974.034-1.948.027-2.922.024l.009-.19.756-.125c.62-1.041.82-2.26 1.14-3.411-1.144-.01-2.287-.011-3.43.002-.236.489-.37 1.013-.485 1.542-.184.596-.359 1.21-.302 1.842.253.052.506.11.76.16l.016.178c-1.001 0-2.001.019-3-.015l.007-.132c.397-.123.944-.146 1.087-.604.273-.813.507-1.64.734-2.468.128-.557.439-1.06.518-1.628.088-.722.52-1.376.425-2.123-.089-.337-.518-.257-.787-.324.01-.071.02-.142.033-.212zM97.816 43.055a64.497 64.497 0 011.897.012c.267 2.003.397 4.026.741 6.019.386-.549.751-1.113 1.168-1.64.74-.94 1.351-1.974 2.151-2.867.368-.49.668-1.026 1.032-1.52a50.105 50.105 0 011.763.012c.01.07.022.142.035.214-.413.082-1.008.054-1.129.573-.474 1.213-.753 2.49-1.159 3.724-.224.805-.547 1.614-.528 2.462.113.335.581.265.85.383l.021.152c-1.056.008-2.109.008-3.163.002l.009-.153c.33-.047.744-.046.965-.345.349-.442.413-1.026.592-1.542.349-1.312.754-2.608 1.093-3.922-.816.965-1.454 2.06-2.234 3.052-.69.962-1.386 1.922-2.047 2.904-.085.002-.17.005-.252.009-.264-1.984-.426-3.98-.704-5.962-.432 1.475-.915 2.934-1.318 4.418-.068.346-.246.715-.127 1.072.156.254.53.213.795.301a2.782 2.782 0 00-.078.162c-.827.01-1.652.01-2.477.004l.054-.141c.279-.072.598-.077.846-.243.154-.157.285-.347.371-.552.411-1.331.747-2.685 1.2-4.003.296-.649.338-1.374.511-2.057a7.317 7.317 0 00-.956-.298c.025-.077.05-.154.078-.23zM72.933 43.421c.292-.073.608.14.746.258-.019.287-.07.644-.353.798-.318.141-.74-.049-.797-.397-.11-.292.137-.573.404-.659zM27.027 44.956c.257-.277.401-.667.763-.832-.107.535-.267 1.059-.405 1.586.29.002.583.007.875.01l-.104.298c-.295.014-.588.03-.882.045-.348 1.39-.942 2.723-1.146 4.146.583-.069.822-.677 1.293-.942-.15.587-.61 1.076-1.15 1.336-.267.02-.638.166-.86-.052-.24-.314-.101-.735-.018-1.077.274-1.15.763-2.238.942-3.413l-.762-.017.02-.168c.542-.188 1.063-.478 1.434-.92zM35.71 45.115c.3-.322.477-.79.914-.96-.095.524-.248 1.037-.389 1.551l.819.015-.105.297-.828.044c-.34 1.386-.911 2.709-1.166 4.116.54-.026.86-.532 1.203-.883l.118.17c-.343.407-.64.914-1.147 1.134-.28.032-.82.203-.937-.175-.052-1.038.372-2.018.688-2.987.11-.457.206-.919.316-1.376l-.76-.015.01-.188c.452-.184.94-.36 1.264-.743zM75.623 45.222c.318-.316.568-.69.837-1.048l.188.052c-.115.499-.252.993-.39 1.486.269.003.54.006.813.011l-.034.296c-.296.017-.586.037-.878.059a155.498 155.498 0 00-.97 3.248c-.082.298-.157.602-.167.913.534-.15.843-.655 1.275-.962-.131.574-.63.998-1.094 1.324a1.272 1.272 0 01-1.064-.132c.062-1.078.44-2.1.78-3.115.096-.423.204-.844.315-1.264-.301-.027-.598-.048-.895-.075.409-.295.917-.44 1.284-.793zM13.977 45.797a2.415 2.415 0 011.51-.158c.293.14.736.332.626.748.04.444-.237.834-.567 1.1-.826.656-1.893.942-2.936.99.056.384-.098.86.212 1.175.266.41.818.495 1.268.453.6-.13 1.058-.549 1.567-.858l.065.201c-.54.46-1.103.955-1.801 1.152-.535.039-1.164.204-1.632-.151-.749-.507-.78-1.528-.51-2.304.301-1.072 1.178-1.928 2.198-2.348zm-.03.366c-.633.518-1.123 1.23-1.284 2.037.693-.076 1.434-.204 1.971-.687.487-.336.751-.894.718-1.482-.456-.137-1.013-.182-1.405.132zM29.592 46.505c.495-.527 1.19-.98 1.948-.894.295.101.498.363.708.581.063-.15.128-.3.194-.448.285-.032.569-.083.854-.115-.361 1.528-.975 2.988-1.224 4.543.461-.103.764-.477 1.068-.8.005.586-.589.96-1.03 1.23-.293.042-.805.2-.916-.195-.057-.389.146-.774.165-1.161-.467.564-.988 1.137-1.702 1.384-.324.007-.724.13-.997-.107-.46-.378-.492-1.057-.379-1.596.156-.926.71-1.723 1.311-2.422zm1.52-.555c-.312.056-.56.275-.775.494a4.91 4.91 0 00-1.182 2.683c.013.317.005.751.359.884.48.137.922-.158 1.24-.485.814-.81 1.406-1.944 1.242-3.113-.112-.38-.487-.635-.883-.463zM38.136 46.79c.686-.814 1.78-1.357 2.865-1.164.301.111.684.29.723.652.102.513-.321.901-.654 1.225-.796.68-1.865.932-2.893.978-.026.506-.065 1.188.49 1.437.892.542 1.838-.172 2.57-.66l.058.189c-.639.54-1.331 1.184-2.225 1.203-.328-.01-.688.075-.994-.08-.657-.293-1.028-1.052-.92-1.75.055-.773.521-1.434.98-2.03zm1.23-.51c-.603.474-.942 1.197-1.133 1.922.74-.09 1.53-.248 2.09-.777.405-.316.596-.82.615-1.321-.49-.3-1.155-.208-1.571.175zM54.464 46.54c.633-.518 1.407-1 2.265-.948.421-.02.92.184 1.037.622.205.547-.267.983-.618 1.325-.823.65-1.897.898-2.93.934.032.366.024.755.169 1.1.301.433.865.634 1.382.51.607-.143 1.082-.579 1.644-.825-.259.548-.85.834-1.337 1.147-.73.32-1.707.458-2.35-.11-.294-.329-.417-.77-.459-1.2.003-.972.487-1.9 1.197-2.554zm1.368-.508c-.81.449-1.298 1.303-1.532 2.17.86-.076 1.8-.302 2.354-1.02.268-.305.489-.833.185-1.178-.304-.16-.7-.099-1.007.028zM58.491 45.968c.647-.174 1.318-.248 1.981-.338-.248.831-.502 1.661-.735 2.497.606-.837 1.1-1.792 1.965-2.401.205-.136.564-.248.715.006.27.392-.016.925-.316 1.196-.339.135-.507-.269-.6-.515-.54.23-.818.792-1.162 1.23-.664.86-1.024 1.895-1.286 2.934-.294-.001-.582.003-.872.004.174-.682.467-1.325.694-1.987.094-.838.531-1.618.503-2.468-.295-.051-.595-.108-.887-.158zM62.848 46.056c.621-.289 1.317-.304 1.978-.449-.218.731-.431 1.464-.631 2.2.493-.792 1.008-1.633 1.859-2.094.363-.252.985-.157 1.074.337.114.689-.227 1.343-.33 2.012.547-.907 1.106-1.892 2.086-2.403.3-.16.737-.086.888.235.215.777-.259 1.474-.367 2.22-.132.67-.392 1.312-.47 1.993.379-.181.671-.49.954-.793l.173.106c-.435.593-.967 1.408-1.838 1.223-.136-.103-.231-.273-.194-.446.194-1.035.549-2.032.81-3.051.074-.3.091-.61.098-.916-.61.038-1.007.563-1.357 1.002-.44.654-.882 1.325-1.131 2.078-.146.418-.253.85-.398 1.269-.292 0-.578.004-.866.006.141-.82.561-1.56.687-2.38.12-.68.504-1.373.274-2.07-.305.121-.584.3-.8.547-.557.606-1.069 1.279-1.36 2.054-.278.591-.39 1.24-.635 1.845-.28-.008-.555-.01-.832-.019.321-1.202.769-2.364 1.06-3.575.016-.242.266-.57.047-.79-.216-.177-.522-.103-.779-.14zM71.228 45.914c.645-.124 1.306-.174 1.946-.33-.265.957-.544 1.91-.804 2.868-.14.572-.45 1.12-.358 1.727.392-.176.703-.487.924-.85l.195.04c-.153.456-.537.787-.898 1.086-.363.282-.859.194-1.255.026.077-.73.283-1.439.547-2.122.175-.698.4-1.383.578-2.08a19.766 19.766 0 01-.231-.223c-.22.01-.431.032-.648.052l.004-.194zM78.735 46.246c.477-.363 1.034-.756 1.673-.642.346.07.55.376.715.658.044-.167.09-.334.137-.499.32-.047.636-.12.956-.166-.282.972-.607 1.931-.875 2.908-.188.531-.344 1.077-.365 1.643.408-.108.68-.451.942-.757l.19.145c-.297.36-.572.766-.983 1.01-.31.13-.663.078-.987.122-.07-.488-.007-.974.11-1.449-.472.527-.913 1.156-1.617 1.39-.357.026-.788.146-1.101-.089-.41-.391-.52-1.008-.414-1.546.22-1.053.825-2.007 1.62-2.728zm1.31-.298c-.54.13-.958.578-1.228 1.041-.421.7-.813 1.485-.745 2.327-.019.264.048.636.354.714.39.07.808-.065 1.07-.364.859-.849 1.592-2.038 1.341-3.291a.583.583 0 00-.791-.427zM84.007 46.148c.66-.558 1.6-.678 2.424-.5.633.326 1.365.266 2.059.282-.056.192-.113.384-.166.577-.307.002-.606.011-.91.015.06.386.142.806-.039 1.172-.338.633-.946 1.155-1.686 1.229-.604.073-1.242.238-1.654.715.768.516 1.738.477 2.58.796.856.32.825 1.63.076 2.037-.472.237-.966.486-1.507.498-.849.051-1.802.1-2.539-.4-.31-.195-.482-.589-.378-.947.216-.56.768-.866 1.274-1.127-.065-.223-.187-.458-.148-.691.202-.408.649-.599 1.04-.786-.609-.22-1.241-.723-1.188-1.436-.045-.583.343-1.077.762-1.434zm1.405-.266c-.712.168-1.062.91-1.169 1.57-.09.432.007 1.02.475 1.2.437.255.928-.085 1.279-.327.396-.518.618-1.23.462-1.873-.06-.49-.63-.645-1.047-.57zm-1.547 4.735c-.688.144-1.183 1.17-.63 1.7.543.4 1.285.337 1.922.3.46-.043.972-.149 1.287-.516.218-.255.173-.74-.16-.873-.65-.234-1.334-.353-1.997-.544-.14-.035-.279-.082-.422-.067zM90.15 46.248c.527-.424 1.198-.697 1.885-.65.405-.016.874.166 1.03.563.192.539-.187 1.019-.563 1.357-.82.643-1.885.904-2.914.957.002.406-.081.87.198 1.21.399.437 1.111.58 1.641.296.445-.178.813-.493 1.223-.733l.06.196c-.56.47-1.134.98-1.862 1.163-.585.06-1.26.168-1.75-.242-.421-.438-.635-1.068-.512-1.67.205-.963.741-1.879 1.563-2.447zm.867-.142c-.742.469-1.185 1.27-1.41 2.094 1.047-.049 2.224-.495 2.65-1.525.076-.252.063-.656-.25-.736-.337-.045-.702-.025-.99.167zM107.235 45.625c.294-.157.62.1.669.386.035.51-.19.98-.335 1.458-.191.843-.518 1.655-.643 2.513.889.154 1.378-.731 1.827-1.325.685-.855 1.017-1.912 1.329-2.941l.834.006a95.674 95.674 0 01-.956 3.32 5.245 5.245 0 00-.211 1.125c.416-.098.671-.444.9-.777l.184.046a2.9 2.9 0 01-1.111 1.185c-.249-.02-.627.168-.795-.086-.12-.138-.103-.329-.064-.492.147-.638.342-1.263.529-1.89-.613.788-1.062 1.736-1.916 2.304-.326.262-.768.16-1.153.21-.104-.214-.248-.427-.244-.672.161-1.314.79-2.535.879-3.86-.387.09-.627.41-.855.707l-.181-.045c.326-.485.718-1.017 1.313-1.172zM112.309 46.977c-.077-.708.565-1.38 1.272-1.387.365-.046.688.144 1.037.2.289.067.531-.116.781-.22-.11.56-.228 1.12-.344 1.68a12.265 12.265 0 00-.224-.004c-.084-.361-.048-.816-.361-1.079-.346-.363-.906-.237-1.34-.137-.003.3-.111.653.079.924.472.654 1.18 1.193 1.395 2 .255.68-.301 1.29-.851 1.6-.842.332-1.753-.232-2.59.099.088-.57.191-1.139.3-1.705l.219-.035c.096.503.135 1.17.667 1.425.441.05 1.189.228 1.368-.35.247-.518-.092-1.016-.406-1.406-.395-.492-.934-.937-1.002-1.605zM117.599 46.242a2.96 2.96 0 012.245-.626c.438.075.82.492.697.957-.046.47-.425.812-.778 1.09-.806.523-1.761.781-2.719.82l.066.94c.175.551.83.765 1.361.684.613-.167 1.144-.533 1.688-.848-.246.534-.799.83-1.279 1.12-.49.332-1.116.278-1.675.266-.697-.086-1.162-.796-1.146-1.46-.095-1.175.613-2.272 1.54-2.944zm.6.064c-.613.47-.929 1.18-1.133 1.9.923-.09 1.978-.379 2.489-1.222.285-.275.161-.666.145-1.01-.519-.064-1.118-.085-1.501.332zM122.342 45.634c.284-.143.512.094.756.187-.026.777-.366 1.482-.533 2.229a32.906 32.906 0 01-.531 1.845c.253.032.539.146.766-.023.671-.496 1.123-1.22 1.558-1.913.397-.705.612-1.49.9-2.24.279-.003.569-.003.854-.004-.41 1.184-.712 2.4-1.065 3.6-.079.28-.145.566-.145.858.445-.152.675-.588 1.02-.877.039.506-.429.825-.763 1.125-.265.244-.661.207-.987.275-.074-.191-.189-.387-.148-.6.107-.608.321-1.19.429-1.798-.57.723-1 1.588-1.784 2.116-.347.244-.848.352-1.238.171-.314-.3-.188-.815-.116-1.191.267-1.054.692-2.079.785-3.17l-.208-.058c-.23.225-.457.45-.669.692l-.194-.062c.339-.467.731-.989 1.313-1.162zM126.967 45.952c.628-.135 1.27-.199 1.898-.34-.183.76-.449 1.496-.648 2.252.542-.777.988-1.691 1.879-2.142.272-.104.618-.2.879-.02.19.106.348.306.248.55 0 .63-.273 1.211-.395 1.82.531-.776.991-1.626 1.737-2.229a1.42 1.42 0 01.876-.25.638.638 0 01.476.726c.033.554-.262 1.046-.369 1.575-.168.725-.388 1.436-.581 2.156.48-.015.725-.486 1.015-.799.026.089.147.185.078.28-.279.38-.605.73-.978 1.019-.287.141-.627.074-.933.062-.022-.352-.037-.708.071-1.048.215-.652.353-1.325.548-1.982.148-.447.186-.917.222-1.383-.361.113-.718.282-.965.573-.94 1.1-1.525 2.437-1.959 3.8-.287.003-.564.01-.845.014.192-.884.616-1.7.747-2.598.082-.592.58-1.256.221-1.844-.629.266-1.097.793-1.472 1.344-.624.935-.982 2.011-1.263 3.089-.298-.001-.585.003-.877.004.388-1.479.962-2.91 1.188-4.427a4.76 4.76 0 00-.802-.073l.004-.129z" fill="#fff"/></svg><svg fill="none" viewBox="0 0 144 69" id="client04" xmlns="http://www.w3.org/2000/svg"><path d="M44.481 69h4.792V48.08h4.348v-2.962h-9.14v23.881zm11.751-23.882L53.733 69h4.69l.446-6.346h2.26L61.572 69h4.69l-2.499-23.882h-7.532zm2.807 14.909l.822-11.949h.274l.821 11.949H59.04zm16.826-14.909h-3.973c-3.355 0-3.56 2.593-3.56 4.265v3.377h4.792v-3.896c0-.613.48-.784.753-.784.446 0 .753.376.753.784v4.75c0 1.466-.48 1.773-1.849 1.773h-2.02v2.627h1.952c1.78 0 1.917.818 1.917 1.569v5.554c0 .41-.308.785-.753.785-.274 0-.753-.17-.753-.785V60.64H68.33v4.094c0 1.672.206 4.266 3.561 4.266h3.973c3.357 0 3.562-2.594 3.562-4.266v-4.81c0-.853-.034-3.31-3.253-3.24v-.24c1.438.068 3.253-.649 3.253-3.241v-3.821c0-1.672-.206-4.264-3.562-4.264zM82.578 69h4.794V48.08h1.508V69h4.792V45.118H82.578v23.881zm21.775-23.88h-7.53V69h4.793v-8.12h2.737c3.356 0 3.561-2.593 3.561-4.265v-7.232c0-1.673-.205-4.265-3.561-4.265zm-1.232 11.94c0 .75-.376 1.194-.889 1.194h-.616V48.079h.616c.513 0 .889.444.889 1.194v7.785zm15.476-11.94h-3.971c-3.354 0-3.561 2.592-3.561 4.264v15.352c0 1.671.207 4.265 3.561 4.265h3.971c3.355 0 3.56-2.594 3.56-4.265V49.383c0-1.673-.205-4.265-3.56-4.265zm-1.232 20.018c0 .41-.307.785-.752.785-.275 0-.754-.17-.754-.785V48.864c0-.614.479-.785.754-.785.445 0 .752.376.752.785v16.273zm20.404-20.019l-3.114 16.786-3.117-16.786h-6.23V69h4.793V54.023h.172L132.737 69h3.834l2.465-14.977h.171V69H144V45.118h-6.231zm-109.02-8.453c1.12 2.679 2.8 5.545 3.892 6.954 1.6-2.072 5.28-8.253 6.427-16.332.639-4.49.666-8.422-.8-14.826C36.8 6.058 33.122.851 32.615 0c-.8 1.195-3.735 5.792-5.226 10.895-1.627 5.685-1.867 10.732-1.306 15.702.56 4.97 2.667 10.068 2.667 10.068zm3.866 5.36c-.72-1.354-1.84-3.928-1.946-7.909-.028-3.852 1.52-7.148 1.972-7.838.402.69 1.734 3.561 1.892 7.493.109 3.848-1.171 6.873-1.918 8.254zm-5.172-21.194c.129-3.317.906-6.723 1.333-8.29 1.626-5.235 3.467-8.581 3.813-9.112.346.532 2.665 4.65 3.867 8.981 1.197 4.33 1.438 8.475 1.386 10.92-.054 2.443-.348 5.02-.721 6.562.134-2.656-.186-6.403-.8-9.326-.613-2.923-2.346-7.812-3.732-10.071-1.28 2.153-2.854 6.378-3.679 10.044-.829 3.668-.853 8.104-.853 9.433-.22-1.121-.771-5.12-.614-9.14zm-3.495 31.742l.028-.031a6.75 6.75 0 019.521 0 6.695 6.695 0 010 9.49l-.034.03v.003l-.04.034a13.428 13.428 0 01-9.476 3.894 13.431 13.431 0 01-9.509-3.925C9.811 57.456 9.263 50.323 12.79 45.11a13.43 13.43 0 0111.157-5.918V21.256C10.723 21.256 0 31.941 0 45.111 0 58.29 10.722 68.975 23.948 68.975a23.919 23.919 0 0017.477-7.553V45.11H23.948v7.462z" fill="#fff"/></svg><svg fill="none" viewBox="0 0 193 53" id="clientHover02" xmlns="http://www.w3.org/2000/svg"><path d="M60.988 6.798l-.045 13.565c-.012 3.39-.36 5.274-3.1 5.265-.511-.002-.854-.003-1.365-.192l-.02 5.838c1.023.383 1.708.386 2.565.389 7.7.026 8.061-5.815 8.073-9.208l.033-9.795 4.447.015-.062 18.65 6.157.02.082-24.49-16.765-.057zM79.807 6.862L88.131 24.6l-3.1 6.77 6.671.023 10.005-24.458-6.671-.022-3.629 10.348-4.243-10.375-7.357-.024zM103.507 31.433l6.159.02.036-10.55 6.294 10.572 7.869.026-8.681-12.651 8.593-11.84-7.356-.025-6.707 10.338.035-10.36-6.16-.021-.082 24.49z" fill="#fff"/><path d="M133.958 32.291c8.211.028 11.995-6.367 12.018-12.961.021-6.404-3.72-12.824-11.932-12.852-8.041-.027-11.826 6.368-11.847 12.772-.022 6.594 3.719 13.014 11.761 13.041zm.019-5.841c-2.739-.01-5.466-2.47-5.451-7.179.016-4.709 2.76-6.96 5.499-6.952 2.909.01 5.637 2.28 5.621 6.99-.016 4.709-2.76 7.15-5.669 7.14zM149.098 7.095l-.082 24.49 5.987.02 8.603-14.664-.05 14.694 5.99.02.083-24.491-5.99-.02-8.603 14.667.049-14.696-5.987-.02zm10.439-1.284c2.567.008 5.136-.925 6.346-3.749L162.294.545c-.521 1.883-2.061 2.064-2.746 2.062-.512-.002-2.223-.194-2.559-2.08l-3.596 1.493c1.015 2.831 3.751 3.783 6.144 3.79zM176.131 7.185l-.046 13.565c-.011 3.39-.363 5.274-3.099 5.265-.512-.002-.854-.003-1.369-.192l-.019 5.838c1.026.383 1.71.386 2.565.389 7.699.025 8.061-5.815 8.072-9.208l.033-9.795 4.448.015-.063 18.65 6.16.02.082-24.49-16.764-.057zM56.46 45.02l.868.002.015-4.544 5.062.017-.016 4.544.867.003.03-8.908-.867-.003-.012 3.649-5.062-.017.013-3.649-.867-.003-.03 8.908zM65.462 45.05l4.747.016.002-.716-3.88-.013.013-3.916 3.726.013.002-.716-3.726-.012.01-2.843 3.88.013.003-.718-4.748-.016-.03 8.908zM75.921 45.085l.858.003.004-1.226.361.001c2.856.01 4.043-1.69 4.05-3.476.006-2.09-1.522-3.48-4.027-3.488l-.36-.001.003-1.07-.857-.003-.004 1.07-.349-.001c-2.52-.008-4.054 1.37-4.061 3.46-.006 1.786 1.17 3.495 4.038 3.504l.349.001-.005 1.226zm.883-7.472c2.865.047 3.49 1.4 3.486 2.771-.008 2.14-1.42 2.692-3.505 2.76l.02-5.53zm-.876 5.528c-2.085-.082-3.493-.643-3.486-2.783.005-1.372.636-2.72 3.505-2.747l-.019 5.53zM84.308 45.113l.833.003.027-8.19 2.35.008.003-.718-5.53-.019-.003.718 2.347.008-.027 8.19zM88.516 45.127l.974.003 2.364-3.905.746.003-.013 3.913.87.003.03-8.908-2.039-.007c-2.674-.01-3.066 1.778-3.068 2.568-.005 1.506 1.16 2.42 2.536 2.376l-2.4 3.954zm4.087-4.617l-1.252-.005c-.71-.002-2.12-.09-2.114-1.792.006-1.652 1.5-1.768 2.209-1.766l1.169.004-.012 3.559zM95.675 45.151l.867.003.015-4.544 5.062.017-.016 4.544.867.003.03-8.908-.867-.003-.012 3.648-5.062-.017.013-3.648-.867-.003-.03 8.908zM103.734 45.178l.87.003 1.225-2.888 3.723.012 1.209 2.897.866.003-3.932-9.152-3.961 9.125zm2.412-3.587l1.542-3.64 1.555 3.65-3.097-.01zM112.631 45.208l.974.004 2.364-3.906.746.003-.013 3.913.867.003.03-8.908-2.036-.007c-2.674-.01-3.066 1.778-3.069 2.568-.005 1.505 1.161 2.42 2.534 2.376l-2.397 3.954zm4.087-4.617l-1.253-.005c-.712-.002-2.122-.09-2.116-1.792.006-1.652 1.502-1.768 2.212-1.766l1.169.004-.012 3.559zM122.717 45.242l.866.003.015-4.314 3.949 4.327 1.132.004-4.263-4.608 4.222-4.3-1.061-.004-3.978 4.142.014-4.155-.866-.003-.03 8.908zM134.271 45.56c2.628.01 4.791-1.89 4.8-4.698.009-2.806-2.14-4.71-4.768-4.72-2.591-.008-4.754 1.882-4.763 4.688-.01 2.808 2.14 4.722 4.731 4.73zm.003-.752c-2.157-.007-3.838-1.643-3.83-3.975.007-2.333 1.7-3.992 3.856-3.984 2.16.007 3.875 1.677 3.867 4.01-.008 2.332-1.734 3.956-3.893 3.95zM140.249 45.301l.833.003.84-6.573 3.23 6.988 3.241-6.966.848 6.578.78.003-1.184-9.264-3.679 7.947-3.662-7.972-1.247 9.256zM151.68 36.431l-.03 8.908.867.003.028-8.19 5.062.018-.028 8.19.867.002.03-8.908-6.796-.023zM159.713 45.366l.867.003 1.225-2.888 3.726.012 1.205 2.897.867.003-3.933-9.152-3.957 9.125zm2.409-3.587l1.542-3.64 1.554 3.65-3.096-.01zM168.833 45.397l.867.003.015-4.544 5.062.017-.015 4.544.87.003.03-8.908-.87-.003-.012 3.648-5.062-.017.012-3.648-.867-.003-.03 8.908zM177.865 36.52l-.032 9.308 6.077-7.428-.023 7.048.854.002.031-9.26-6.061 7.38.023-7.048-.869-.003zM186.693 45.457l.975.003 2.363-3.904.747.002-.014 3.913.87.003.03-8.908-2.036-.007c-2.677-.01-3.069 1.778-3.071 2.568-.005 1.505 1.161 2.42 2.537 2.375l-2.401 3.955zm4.087-4.617l-1.252-.005c-.71-.002-2.119-.09-2.113-1.792.005-1.652 1.498-1.768 2.211-1.766l1.166.004-.012 3.559zM0 1h51v51H0z" fill="#fff"/><path fill-rule="evenodd" clip-rule="evenodd" d="M.172.57l50.87.17-.172 51.268L0 51.838.172.568zM40.31 7.531c.445-.937 1.333-1.716 2.502-1.712 1.533-.073 2.898 1.115 3.009 2.876 0 .246-.124 1.1-.208 1.302l-5.949 9.675c-.604 1.022-.497 1.8-.253 2.66l8.864 23.088-36.684-.123c-3.263-.011-5.798-2.676-5.787-5.992l-.02-30.498c.137-4.049 5.74-4.032 5.93-.103l-.097 28.735c-.003.906.793 1.889 1.762 1.892l26.906.09-6.873-16.705c-.236-.533-.322-1.11-.32-1.763.002-.731.33-1.834.777-2.816L40.31 7.532zM25.401 8.751c.006-1.964 1.447-2.961 2.886-2.966 1.439-.005 2.88.982 2.873 2.985l-.07 20.727c-.016 4.74-3.526 7.88-7.832 7.866-4.192-.014-7.694-3.178-7.678-7.918l.07-20.727c.013-3.928 5.78-3.909 5.766.02l-.07 20.562c-.008 2.74 3.975 3 3.985.013l.07-20.562z" fill="#DF0033"/></svg><svg viewBox="0 0 189.524 189.524" id="cross" xmlns="http://www.w3.org/2000/svg"><g><path clip-rule="evenodd" d="M121.564 67.959a4.737 4.737 0 010 6.701L74.66 121.564a4.74 4.74 0 01-6.701-6.701l46.905-46.905a4.739 4.739 0 016.7.001z" fill-rule="evenodd" data-original="#000000"/><path clip-rule="evenodd" d="M67.959 67.959a4.74 4.74 0 016.701 0l46.905 46.904a4.738 4.738 0 11-6.701 6.702L67.959 74.66a4.74 4.74 0 010-6.701z" fill-rule="evenodd" data-original="#000000"/><path clip-rule="evenodd" d="M94.762 180.048c47.102 0 85.286-38.183 85.286-85.286 0-47.102-38.183-85.286-85.286-85.286-47.102 0-85.286 38.184-85.286 85.286s38.184 85.286 85.286 85.286zm0 9.476c52.335 0 94.762-42.427 94.762-94.762C189.524 42.426 147.097 0 94.762 0 42.426 0 0 42.426 0 94.762c0 52.335 42.426 94.762 94.762 94.762z" fill-rule="evenodd" data-original="#000000"/></g></svg><svg fill="none" viewBox="0 0 8 16" id="fb" xmlns="http://www.w3.org/2000/svg"><path d="M7.672.003L5.582 0C3.233 0 2.43 1.822 2.43 3.346v1.958H.33A.334.334 0 000 5.642v1.991c0 .187.147.338.329.338H2.43v7.69c0 .188.147.339.329.339h2.027a.334.334 0 00.33-.338v-7.69h2.456a.333.333 0 00.33-.339v-1.99a.344.344 0 00-.096-.24.324.324 0 00-.233-.1H5.115v-1.67c0-.432.178-1.157 1.148-1.157h1.409A.333.333 0 008 2.138V.342a.334.334 0 00-.328-.339z" fill="#fff"/></svg><svg fill="none" viewBox="0 0 10 14" id="geo" xmlns="http://www.w3.org/2000/svg"><path d="M5 0C2.243 0 0 2.275 0 5.07c0 3.47 4.475 8.563 4.665 8.779a.446.446 0 00.67 0C5.525 13.633 10 8.539 10 5.07 10 2.275 7.757 0 5 0zm0 7.621c-1.387 0-2.516-1.144-2.516-2.55 0-1.407 1.129-2.552 2.516-2.552S7.516 3.664 7.516 5.07c0 1.407-1.129 2.551-2.516 2.551z" fill="#fff"/></svg><svg fill="none" viewBox="0 0 9 13" id="geoPoint" xmlns="http://www.w3.org/2000/svg"><path d="M4.5 0c2.46 0 4.46 2.112 4.46 4.708C8.96 7.93 4.97 12.66 4.8 12.86a.388.388 0 01-.598 0C4.031 12.66.04 7.93.04 4.71.04 2.111 2.04 0 4.5 0zm0 7.077c1.237 0 2.244-1.063 2.244-2.369 0-1.306-1.007-2.369-2.244-2.369-1.237 0-2.244 1.063-2.244 2.37 0 1.305 1.007 2.368 2.244 2.368z" fill="#595C64"/></svg><svg fill="none" viewBox="0 0 45 45" id="iconTabs01" xmlns="http://www.w3.org/2000/svg"><path fill-rule="evenodd" clip-rule="evenodd" d="M0 .833C0 .373.373 0 .833 0h43.334c.46 0 .833.373.833.833v43.473a.694.694 0 01-1.389 0V5.694H30.278V41.39c0 .46-.373.833-.834.833h-5.138v1.945c0 .46-.373.833-.834.833H.833A.833.833 0 010 44.167V.833zm24.306 40h4.583v-8.125h-4.583v8.125zm0-9.514h4.583V19.444h-4.583V31.32zm0-13.263h4.583V5.694h-4.583v12.362zm-1.39-12.362h-17.5v7.709h17.5V5.694zm0 9.098h-17.5v11.736h17.5V14.792zm0 13.125h-17.5V43.61h17.5V27.917zM4.029 43.61V5.694h-2.64v37.917h2.64zM1.388 4.306h42.223V1.389H1.39v2.917z" fill="#F46B2A"/></svg><svg fill="none" viewBox="0 0 51 48" id="iconTabs02" xmlns="http://www.w3.org/2000/svg"><path d="M47.552 9.832h-9.89l-3.144-6.55a.749.749 0 00-1-.35l-3.953 1.896L25.02.754a.75.75 0 00-1.06.058l-8.081 9.02H4.097a3.342 3.342 0 00-3.345 3.345H.748V44.74a2.7 2.7 0 002.696 2.696H43.66a2.699 2.699 0 002.696-2.696v-1.196h1.196a2.7 2.7 0 002.7-2.693V12.525a2.7 2.7 0 00-2.7-2.693zm-29.657 0l6.683-7.46 3.524 3.159-11.145 5.35.94-1.049h-.002zM33.49 4.608l4.994 10.407-26.678.005c.196-.095 20.508-9.846 21.684-10.412zM4.097 11.332h10.438l-1.118 1.247-5.086 2.442H4.093a1.845 1.845 0 01.004-3.689zm40.759 15.399h-8.723c-1.24 0-2.25 1.009-2.25 2.25v4.5c0 1.24 1.01 2.25 2.25 2.25h8.723v9.01c0 .66-.536 1.196-1.196 1.196H3.444c-.66 0-1.196-.536-1.196-1.196V15.965c.532.353 1.229.55 1.818.554l.03.003H43.66c.626 0 1.197.516 1.197 1.195v9.014zm0 1.5v6h-8.723c-.42 0-.75-.33-.75-.75v-4.5a.75.75 0 01.75-.75h8.723zm3.896 12.621c0 .658-.539 1.193-1.2 1.193h-1.193v-24.33c0-1.543-1.312-2.694-2.699-2.694h-3.508l-1.77-3.689h9.17c.662 0 1.2.535 1.2 1.193v28.327z" fill="#F76425"/><path d="M16.498 35.657h-3.017v2.438h-1.72v-2.438H9.896v-1.4h1.864v-2.022H9.896v-1.392h1.864v-6.462h5.74c1.404 0 2.518.352 3.341 1.055.823.703 1.234 1.655 1.234 2.854 0 1.26-.396 2.231-1.189 2.917-.787.68-1.906 1.022-3.36 1.028h-4.045v2.022h3.018v1.4zm-3.017-4.813h4.018c.931 0 1.92-.218 2.406-.65.486-.43.676-1.076.676-1.904 0-1.121-.225-1.277-.676-1.732-.45-.455-1.493-.77-2.352-.776h-4.072v5.061zM37.511 31.23c0 .415.336.755.75.755a.754.754 0 000-1.509c-.414 0-.75.34-.75.755z" fill="#F76425"/></svg><svg fill="none" viewBox="0 0 51 47" id="iconTabs03" xmlns="http://www.w3.org/2000/svg"><path d="M32.44 24.67a.83.83 0 00-1.122.376c-1.122 2.256-2.66 4.261-4.613 5.849-1.953 1.629-4.156 2.757-6.607 3.425a.836.836 0 00-.582 1.045.802.802 0 00.79.627c.082 0 .166 0 .207-.042a19.985 19.985 0 007.23-3.76 19.262 19.262 0 005.03-6.392.792.792 0 00-.333-1.128z" fill="#F76425"/><path d="M49.56 27.97c.54-.71.79-1.587.707-2.506-.083-.836-.499-1.546-1.08-2.09.207-.166.374-.334.54-.542.54-.71.79-1.588.706-2.507-.208-1.797-1.87-3.133-3.657-2.925l-2.285-1.128a3.658 3.658 0 00-2.078-.5h-.041L31.857 16.94l-.125-.125v-.084c-.498-1.17-.748-2.507-.623-3.76l.374-5.139v-.041c0-.544 0-3.217-.582-4.304a5.863 5.863 0 00-5.36-3.091h-.458c-.415 0-.79.167-1.038.501-.291.293-.416.669-.416 1.086v.21a38.075 38.075 0 01-.332 6.517l-.084.668c-.54 1.42-1.163 3.008-1.953 4.136-.457.669-1.039 1.546-1.496 2.465l-1.08 2.089c-.374.752-.582 1.295-.707 1.922a3.774 3.774 0 01-.914 1.921c-.29.335-.54.544-1.33.585l-4.28.167H1.398a.818.818 0 00-.582.251.827.827 0 00-.25.585v22.268c0 .46.375.835.832.835h10.015a.836.836 0 00.83-.835v-3.635h.208l7.314-.92 5.776 1.421c2.161.669 4.405 1.045 6.691 1.045.914 0 1.87-.042 2.826-.167l9.142-1.463c.041 0 .083 0 .125-.041a3.821 3.821 0 002.119-1.755l.499-.836a3.13 3.13 0 001.454-1.086c.54-.71.79-1.587.665-2.507a3.258 3.258 0 00-.831-1.838c.415-.209.79-.543 1.08-.919.54-.71.79-1.587.707-2.507-.083-.835-.499-1.545-1.08-2.088.29-.084.456-.293.623-.502zM10.582 44.932H2.23V24.336l8.352.041v20.555zm36.694-22.476l-4.696.584-3.74.46c-.914.125-1.787-.543-1.87-1.462-.041-.46.083-.878.333-1.254.29-.376.665-.584 1.122-.626l8.435-1.045h.208c.831 0 1.58.627 1.663 1.504.041.46-.084.878-.333 1.254-.25.292-.665.543-1.122.585zm.208 13.577c.041.46-.083.878-.333 1.254-.29.376-.664.585-1.122.626l-5.319.669c-.914.125-1.787-.543-1.87-1.462-.041-.46.083-.878.333-1.254.29-.376.665-.585 1.122-.626l5.319-.669h.208c.83 0 1.579.627 1.662 1.462zm.623-3.969c-.29.376-.665.585-1.122.627l-5.111.627-1.787.209c-.914.125-1.787-.543-1.87-1.463-.042-.46.083-.877.332-1.253.291-.376.665-.585 1.122-.627l6.857-.835h.208c.831 0 1.579.627 1.662 1.504.083.418-.041.877-.29 1.211zm-.997-4.47l-5.527.669-2.16.25c-.915.126-1.788-.543-1.87-1.462-.042-.46.082-.877.331-1.253.291-.376.665-.585 1.122-.627l7.647-.96h.207c.832 0 1.58.626 1.663 1.503a1.91 1.91 0 01-.333 1.254c-.208.334-.623.584-1.08.626zm-3.2 12.826l-9.059 1.462c-2.992.376-5.943.084-8.768-.794h-.042l-5.942-1.504a.354.354 0 00-.291 0l-7.48.92V24.336l3.49-.126c1.122-.042 1.87-.376 2.535-1.17a5.636 5.636 0 001.247-2.715c.083-.376.208-.794.54-1.462l1.08-2.09a18.43 18.43 0 011.414-2.297c.872-1.295 1.579-2.966 2.16-4.596 0-.041.042-.125.042-.167l.125-.752c.332-2.256.457-4.553.374-6.81v-.083h.29c1.58-.042 3.076.794 3.824 2.214.29.543.374 2.382.374 3.468l-.374 5.097c-.125 1.545.166 3.091.748 4.512l.25.793.955 3.008a.834.834 0 00.79.585c.082 0 .166 0 .249-.041.457-.126.665-.627.54-1.045l-.623-2.047 10.18-1.128c.416 0 .832.084 1.206.292h.041l-5.443.669c-.873.125-1.704.543-2.244 1.253-.54.71-.79 1.588-.707 2.507a3.367 3.367 0 001.455 2.381c-.042.042-.084.126-.167.167a3.35 3.35 0 00-.664 2.507 3.367 3.367 0 001.454 2.381c-.042.042-.083.126-.166.167-.54.71-.79 1.588-.707 2.507a3.367 3.367 0 001.455 2.381c-.042.042-.083.126-.166.168-.54.71-.79 1.587-.707 2.506a3.366 3.366 0 003.325 2.966c.124 0 .29 0 .415-.041l3.906-.46c-.29.209-.581.418-.914.585z" fill="#F76425"/></svg><svg fill="none" viewBox="0 0 112 40" id="idea01" xmlns="http://www.w3.org/2000/svg"><path d="M22.062 30.265H94.26l17.043 9.006H.698l21.364-9.006z" fill="#F3F3F3"/><path stroke="#202020" stroke-width="1.5" d="M74.75.75h17.5v33.5h-17.5zM23.75.75h17.5v33.5h-17.5z"/><path stroke="#202020" stroke-width="1.5" d="M57.75.75h17.5v10.5h-17.5z"/><path stroke="#202020" stroke-width="1.5" d="M40.75.75h17.5v33.5h-17.5z"/><path stroke="#202020" stroke-width="1.5" d="M57.75 10.75h17.5v23.5h-17.5z"/><path d="M60.647 16.646l3-3m8.707 14.708l-3 3m-8.707-10.707l7-7m4.707 10.707l-7 7m-4.707-6.707l11-11m.707 6.707l-11 11m-.707-2.707l11-11" stroke="#202020"/></svg><svg fill="none" viewBox="0 0 107 53" id="idea02" xmlns="http://www.w3.org/2000/svg"><path d="M.735 32.571l17.588-10.154v19.6L.735 52.172v-19.6zM35.912 32.571L18.323 22.417v19.6l17.589 10.155v-19.6zM35.912 32.571L53.5 22.417v19.6L35.912 52.172v-19.6zM71.088 32.571L53.5 22.417v19.6l17.588 10.155v-19.6zM71.088 32.571l17.589-10.154v19.6L71.088 52.172v-19.6zM106.265 32.571L88.677 22.417v19.6l17.588 10.155v-19.6z" fill="#F3F3F3"/><path d="M7.384 10.01l14.29-8.25V32.7l-14.29 8.25V10.01z" fill="#fff" fill-opacity=".7" stroke="#202020" stroke-width="1.5"/><path d="M37.262 10.01l-14.29-8.25V32.7l14.29 8.25V10.01z" fill="#fff" fill-opacity=".5" stroke="#202020" stroke-width="1.5"/><path d="M10.39 15.303l2.121-3.674m6.157 17.446l-2.121 3.674m-6.157-14.18l4.95-8.573m3.328 15.813l-4.95 8.573M10.39 21.835l7.778-13.472m.5 5.74L10.89 27.575m-.5-2.474l7.778-13.472m.5 5.946L10.89 31.047m7.778-9.444L10.89 35.075" stroke="#404144"/><path d="M10.39 15.303l2.121-3.674m6.157 17.446l-2.121 3.674m-6.157-14.18l4.95-8.573m3.328 15.813l-4.95 8.573M10.39 21.835l7.778-13.472m.5 5.74L10.89 27.575m-.5-2.474l7.778-13.472m.5 5.946L10.89 31.047m7.778-9.444L10.89 35.075" stroke="url(#arpaint0_linear_24:367)" style="mix-blend-mode:overlay"/><path d="M38.561 10.01l14.29-8.25V32.7l-14.29 8.25V10.01z" fill="#fff" fill-opacity=".7" stroke="#202020" stroke-width="1.5"/><path d="M68.439 10.01l-14.29-8.25V32.7l14.29 8.25V10.01z" fill="#fff" fill-opacity=".5" stroke="#202020" stroke-width="1.5"/><path d="M41.567 15.303l2.121-3.674m6.157 17.446l-2.121 3.674m-6.157-14.18l4.95-8.573m3.328 15.813l-4.95 8.573m-3.328-12.547l7.778-13.472m.5 5.74l-7.778 13.472m-.5-2.474l7.778-13.472m.5 5.946l-7.778 13.472m7.778-9.444l-7.778 13.472" stroke="#404144"/><path d="M41.567 15.303l2.121-3.674m6.157 17.446l-2.121 3.674m-6.157-14.18l4.95-8.573m3.328 15.813l-4.95 8.573m-3.328-12.547l7.778-13.472m.5 5.74l-7.778 13.472m-.5-2.474l7.778-13.472m.5 5.946l-7.778 13.472m7.778-9.444l-7.778 13.472" stroke="url(#arpaint1_linear_24:367)" style="mix-blend-mode:overlay"/><path d="M69.738 10.01l14.29-8.25V32.7l-14.29 8.25V10.01z" fill="#fff" fill-opacity=".7" stroke="#202020" stroke-width="1.5"/><path d="M99.616 10.01l-14.29-8.25V32.7l14.29 8.25V10.01z" fill="#fff" fill-opacity=".5" stroke="#202020" stroke-width="1.5"/><path d="M72.744 15.303l2.121-3.674m6.157 17.446L78.9 32.749m-6.156-14.18l4.95-8.573m3.328 15.813l-4.95 8.573m-3.328-12.547l7.778-13.472m.5 5.74l-7.778 13.472m-.5-2.474l7.778-13.472m.5 5.946l-7.778 13.472m7.778-9.444l-7.778 13.472" stroke="#404144"/><path d="M72.744 15.303l2.121-3.674m6.157 17.446L78.9 32.749m-6.156-14.18l4.95-8.573m3.328 15.813l-4.95 8.573m-3.328-12.547l7.778-13.472m.5 5.74l-7.778 13.472m-.5-2.474l7.778-13.472m.5 5.946l-7.778 13.472m7.778-9.444l-7.778 13.472" stroke="url(#arpaint2_linear_24:367)" style="mix-blend-mode:overlay"/><defs><linearGradient id="arpaint0_linear_24:367" x1="14.529" y1="-25.491" x2="42.847" y2="23.557" gradientUnits="userSpaceOnUse"><stop stop-color="#fff"/><stop offset="1" stop-color="#fff" stop-opacity="0"/></linearGradient><linearGradient id="arpaint1_linear_24:367" x1="45.706" y1="-25.491" x2="74.024" y2="23.557" gradientUnits="userSpaceOnUse"><stop stop-color="#fff"/><stop offset="1" stop-color="#fff" stop-opacity="0"/></linearGradient><linearGradient id="arpaint2_linear_24:367" x1="76.883" y1="-25.491" x2="105.201" y2="23.557" gradientUnits="userSpaceOnUse"><stop stop-color="#fff"/><stop offset="1" stop-color="#fff" stop-opacity="0"/></linearGradient></defs></svg><svg fill="none" viewBox="0 0 129 39" id="idea03" xmlns="http://www.w3.org/2000/svg"><path d="M.198 14.018h91.604l37 24.574H37.198l-37-24.574z" fill="#F3F3F3"/><path stroke="#202020" stroke-width="1.5" d="M27.25.75h60.5v20.5h-60.5z"/><path d="M30.733 6.5l2.306-2.306m20.223 0L38.514 17.806m-7.78-8.231l5.38-5.381m13.718 0L34.895 17.806m-4.162-5.156l8.811-8.456m6.859 0L31.277 17.806m-.544-2.08l12.24-11.532m13.718 0L42.133 17.806M60.12 4.194L45.75 17.806m17.8-13.612L49.37 17.806M66.98 4.194L52.989 17.806m17.42-13.612L56.607 17.806M73.84 4.194L60.226 17.806M76.83 4.194L63.218 17.806M80.18 4.194L66.567 17.806M83.67 4.194L70.058 17.806m3.067 0l12.24-11.531m-8.81 11.757l8.81-8.457m-5.381 8.457l5.381-5.382m-2.306 5.382l2.306-2.307" stroke="#404144"/><path d="M30.733 6.5l2.306-2.306m20.223 0L38.514 17.806m-7.78-8.231l5.38-5.381m13.718 0L34.895 17.806m-4.162-5.156l8.811-8.456m6.859 0L31.277 17.806m-.544-2.08l12.24-11.532m13.718 0L42.133 17.806M60.12 4.194L45.75 17.806m17.8-13.612L49.37 17.806M66.98 4.194L52.989 17.806m17.42-13.612L56.607 17.806M73.84 4.194L60.226 17.806M76.83 4.194L63.218 17.806M80.18 4.194L66.567 17.806M83.67 4.194L70.058 17.806m3.067 0l12.24-11.531m-8.81 11.757l8.81-8.457m-5.381 8.457l5.381-5.382m-2.306 5.382l2.306-2.307" stroke="url(#aspaint0_linear_24:372)" style="mix-blend-mode:overlay"/><path d="M56.25 21.657V1.283l22.5 12.664v19.799l-22.5-12.09z" fill="#fff" fill-opacity=".9" stroke="#202020" stroke-width="1.5"/><defs><linearGradient id="aspaint0_linear_24:372" x1="58.049" y1="-17.025" x2="58.049" y2="21.568" gradientUnits="userSpaceOnUse"><stop stop-color="#fff"/><stop offset="1" stop-color="#fff" stop-opacity="0"/></linearGradient></defs></svg><svg fill="none" viewBox="0 0 73 44" id="idea04" xmlns="http://www.w3.org/2000/svg"><path d="M3.542 16.018h65.862l3.112 13.659s-5.027 13.875-35.19 13.875c-13.844 0-31.151-6.956-36.599-13.875l2.815-13.659z" fill="#F3F3F3"/><path d="M9 28.4V3.242s9.265 8.506 29.113 8.6h.333c6.203 0 11.05-.82 14.788-1.955C61.593 7.35 64.4 3.243 64.4 3.243v25.156S58.523 37 38.446 37h-.333c-6.44-.031-11.767-.948-16.023-2.172C13.228 32.28 9 28.4 9 28.4z" fill="#fff" fill-opacity=".5"/><path d="M22.09 9.758v25.258m16.023-23.274V37m15.12-27.242v25.258M9 3.243v25.156S18.37 37 38.446 37c20.077 0 25.955-8.6 25.955-8.6V3.242s-5.878 8.6-25.955 8.6C18.37 11.844 9 3.244 9 3.244z" stroke="#202020" stroke-width="1.5"/><path d="M55.752 14.94l1.761-2.775m4.2 13.702l-1.761 2.775m-4.306-11.174l4.11-6.475m2.063 12.347l-4.11 6.474m-2.169-9.818L61.997 9.82m.201 4.458l-6.457 10.175m-.306-1.93l6.456-10.176m.195 4.618l-6.457 10.175m6.326-7.057L55.498 30.26" stroke="#404144"/><path d="M55.752 14.94l1.761-2.775m4.2 13.702l-1.761 2.775m-4.306-11.174l4.11-6.475m2.063 12.347l-4.11 6.474m-2.169-9.818L61.997 9.82m.201 4.458l-6.457 10.175m-.306-1.93l6.456-10.176m.195 4.618l-6.457 10.175m6.326-7.057L55.498 30.26" stroke="url(#atpaint0_linear_4249:7538)" style="mix-blend-mode:overlay"/><path d="M18.55 14.037l-1.76-2.776m-4.2 13.703l1.761 2.775m4.306-11.175l-4.11-6.475m-2.063 12.347l4.11 6.475m2.168-9.819L12.305 8.917m-.2 4.459L18.56 23.55m.307-1.931l-6.457-10.175m-.194 4.618l6.457 10.175m-6.326-7.058l6.457 10.175" stroke="#404144"/><path d="M18.55 14.037l-1.76-2.776m-4.2 13.703l1.761 2.775m4.306-11.175l-4.11-6.475m-2.063 12.347l4.11 6.475m2.168-9.819L12.305 8.917m-.2 4.459L18.56 23.55m.307-1.931l-6.457-10.175m-.194 4.618l6.457 10.175m-6.326-7.058l6.457 10.175" stroke="url(#atpaint1_linear_4249:7538)" style="mix-blend-mode:overlay"/><defs><linearGradient id="atpaint0_linear_4249:7538" x1="60.278" y1="-16.501" x2="80.606" y2="22.381" gradientUnits="userSpaceOnUse"><stop stop-color="#fff"/><stop offset="1" stop-color="#fff" stop-opacity="0"/></linearGradient><linearGradient id="atpaint1_linear_4249:7538" x1="14.024" y1="-17.404" x2="-6.303" y2="21.477" gradientUnits="userSpaceOnUse"><stop stop-color="#fff"/><stop offset="1" stop-color="#fff" stop-opacity="0"/></linearGradient></defs></svg><svg fill="none" viewBox="0 0 112 40" id="idea05" xmlns="http://www.w3.org/2000/svg"><path d="M22.062 30.265H94.26l17.043 9.006H.698l21.364-9.006z" fill="#F3F3F3"/><path stroke="#202020" stroke-width="1.5" d="M40.75.75h17.5v33.5h-17.5zM74.75.75h17.5v33.5h-17.5z"/><path stroke="#202020" stroke-width="1.5" d="M57.75.75h17.5v33.5h-17.5z"/><path d="M61 7l3-3m8.707 24.707l-3 3M61 11l7-7m4.707 20.707l-7 7M61 24l11-11m.707 7.707l-11 11M61 28l11-11m-11 3L72 9m-11 6.5l11-11M27 7l3-3m8.707 24.707l-3 3M27 11l7-7m4.707 20.707l-7 7M27 24l11-11m.707 7.707l-11 11M27 28l11-11m-11 3L38 9m-11 6.5l11-11" stroke="#202020"/><path stroke="#202020" stroke-width="1.5" d="M23.75.75h17.5v33.5h-17.5z"/><path stroke="#202020" stroke-width="2" stroke-linecap="round" d="M43 28.586L49.586 22"/><path fill-rule="evenodd" clip-rule="evenodd" d="M45.888 11.282c.796 4.711-6.032 8.215 2.276 11.718-1.821-3.14.227-3.14 0-5.557.341.362.569.725.455 1.208.91-.483 1.48-1.812 1.593-3.503 1.366 1.57 0 3.624.91 4.953 0-.604 0-1.088.228-1.692.91 1.33 1.138 2.9.455 4.591 6.6-5.195.683-7.37 2.163-13.168-1.139.483-2.049 1.45-2.504 3.141C49.87 11.04 48.96 8.624 49.87 5c-5.008 5.315-1.138 6.04-2.39 10.39-.114-2.054-.57-3.504-1.593-4.108z" fill="#202020"/></svg><svg fill="none" viewBox="0 0 32 4" id="idea06" xmlns="http://www.w3.org/2000/svg"><path fill="#202020" d="M0 0h4v4H0zM14 0h4v4h-4zM28 0h4v4h-4z"/></svg><svg fill="none" viewBox="0 0 16 16" id="inst" xmlns="http://www.w3.org/2000/svg"><path d="M11.585 0h-7.17A4.42 4.42 0 000 4.415v7.17A4.42 4.42 0 004.415 16h7.17A4.42 4.42 0 0016 11.585v-7.17A4.42 4.42 0 0011.585 0zm2.995 11.585a3 3 0 01-2.995 2.995h-7.17a3 3 0 01-2.995-2.995v-7.17A3 3 0 014.415 1.42h7.17a3 3 0 012.995 2.995v7.17z" fill="#fff"/><path d="M8 3.877A4.127 4.127 0 003.877 8 4.127 4.127 0 008 12.123 4.127 4.127 0 0012.123 8 4.127 4.127 0 008 3.877zm0 6.826A2.706 2.706 0 015.297 8 2.706 2.706 0 018 5.297 2.706 2.706 0 0110.703 8 2.706 2.706 0 018 10.703zM12.296 2.674a1.045 1.045 0 00-1.041 1.04c0 .274.111.543.305.737.193.193.462.305.736.305.274 0 .542-.112.736-.305.194-.194.305-.463.305-.736 0-.275-.111-.544-.305-.737a1.046 1.046 0 00-.736-.304z" fill="#fff"/></svg><svg fill="none" viewBox="0 0 90 90" id="logo" xmlns="http://www.w3.org/2000/svg"><path fill="#F06326" d="M0 0h90v90H0z"/><path d="M54.42 73.871h-8.016L43.21 65.58H20.972l11.089-28.266h7.774L54.42 73.871zM40.86 59.405l-5.002-13.558-4.942 13.558h9.944z" fill="#fff"/><path d="M39.835 67.576H16.512V37.192H9.16V73.75h33.206l-2.531-6.174zM81.96 57.832c-1.206-1.574-2.893-2.663-5.123-3.33 1.567-.726 2.833-1.815 3.737-3.207.904-1.453 1.386-3.026 1.386-4.721 0-1.574-.362-3.027-1.145-4.298a9.79 9.79 0 00-2.772-3.087c-1.145-.786-2.411-1.27-3.797-1.513-1.386-.242-3.556-.363-6.448-.363H44.596l2.109 5.63h18.14c3.254 0 5.243.06 5.906.12 1.145.121 2.048.545 2.59 1.21.604.666.845 1.514.845 2.603 0 1.09-.362 1.998-1.025 2.724-.663.666-1.627 1.09-2.772 1.21-.663.061-2.35.122-5.062.122H53.214v13.92l3.555 9.02h8.859c4.7-.061 7.654.12 8.859 0 1.928-.243 3.616-.788 4.942-1.756 1.325-.969 2.41-2.18 3.133-3.813a10.837 10.837 0 001.145-4.903c.06-2.118-.542-3.995-1.747-5.568zm-9.04 7.99a4.39 4.39 0 01-2.531 1.391c-.663.121-2.23.182-4.761.182H59.18v-9.2h5.604c3.134 0 5.183.181 6.147.484.965.303 1.688.847 2.17 1.574.482.726.723 1.573.723 2.663.06 1.21-.241 2.179-.904 2.905zM8.438 33.984v-7.263h5.544v7.263h-1.025v-6.476H9.402v6.476h-.964zM21.153 33.197v.787h-5.182v-7.263h5.062v.787h-4.098v2.3h3.254v.726h-3.254v2.603h4.218v.06zM23.564 33.984h-1.025v-7.263h2.833c.904 0 1.567.242 1.988.666.422.424.663.908.663 1.513 0 .605-.24 1.15-.663 1.574-.482.424-1.084.605-1.808.605h-1.928v2.905h-.06zm0-3.692h1.868c.482 0 .844-.12 1.145-.363.301-.242.422-.605.422-1.029 0-.363-.12-.666-.362-.968-.24-.303-.602-.424-1.145-.424h-1.928v2.784zM34.472 33.197v.787H29.29v-7.263h5.063v.787h-4.098v2.3h3.254v.726h-3.255v2.603h4.22v.06zM35.919 33.984v-7.263h4.097v.787h-3.133v6.476h-.965zM43.452 34.105c-1.025 0-1.808-.363-2.41-1.09-.604-.725-.845-1.633-.845-2.662 0-1.09.302-1.998.904-2.724.603-.726 1.386-1.09 2.411-1.09.964 0 1.808.364 2.41 1.03.603.726.905 1.573.905 2.663 0 1.029-.302 1.937-.844 2.663-.663.847-1.507 1.21-2.531 1.21zm0-.726c.723 0 1.265-.303 1.627-.847.422-.606.602-1.332.602-2.24 0-.908-.18-1.634-.602-2.179-.422-.544-.964-.787-1.627-.787s-1.206.303-1.627.848c-.422.544-.603 1.27-.603 2.24 0 .907.18 1.633.602 2.178.422.545.965.787 1.628.787zM49.297 33.984h-1.024v-7.263h2.832c.904 0 1.567.242 1.989.666.422.424.663.908.663 1.513 0 .605-.241 1.15-.663 1.574-.482.424-1.085.605-1.808.605h-1.928v2.905h-.06zm0-3.692h1.868c.483 0 .844-.12 1.145-.363.302-.242.422-.605.422-1.029 0-.363-.12-.666-.361-.968-.241-.303-.603-.424-1.145-.424h-1.929v2.784zM57.794 34.105c-1.024 0-1.807-.363-2.41-1.09-.603-.725-.844-1.633-.844-2.662 0-1.09.302-1.998.904-2.724.603-.726 1.386-1.09 2.41-1.09.965 0 1.809.364 2.411 1.03.603.726.904 1.573.904 2.663 0 1.029-.301 1.937-.843 2.663-.724.847-1.507 1.21-2.532 1.21zm0-.726c.724 0 1.266-.303 1.628-.847.422-.606.602-1.332.602-2.24 0-.908-.18-1.634-.602-2.179-.422-.544-.965-.787-1.627-.787-.663 0-1.206.303-1.628.848-.422.544-.602 1.27-.602 2.24 0 .907.18 1.633.602 2.178.422.545.965.787 1.627.787zM61.953 33.197l2.35-6.476h1.688l2.35 6.476h.482v2.3h-.783l-.12-1.513h-5.425l-.12 1.514h-.784v-2.3h.362zm.964 0h4.34l-1.93-5.75h-.421l-1.989 5.75zM76.175 33.984H75.09l-2.41-3.994-1.808 2.058v1.936h-1.025v-7.263h1.025v4.177l3.616-4.177h1.084l-2.17 2.542 2.773 4.721zM82.804 33.984H81.78l-.844-2.118h-2.953l-.723 2.118h-.844l2.591-7.263h1.145l2.652 7.263zM80.755 31.2l-1.265-3.51-1.266 3.51h2.531z" fill="#fff"/></svg><svg fill="none" viewBox="0 0 14 10" id="mail" xmlns="http://www.w3.org/2000/svg"><path d="M12.75 9.985c.315 0 .587-.094.82-.28L9.602 6.11l-.275.179c-.297.198-.538.353-.723.464a4.641 4.641 0 01-.738.34 2.448 2.448 0 01-.86.173h-.015c-.266 0-.552-.058-.86-.173a4.626 4.626 0 01-.738-.34c-.185-.111-.425-.266-.722-.464a34.653 34.653 0 00-.274-.18L.43 9.705c.232.186.504.28.82.28H12.75zM.79 3.846A4.058 4.058 0 010 3.23V8.7L3.496 5.53c-.7-.443-1.6-1.004-2.707-1.685zM13.219 3.846a232.35 232.35 0 00-2.714 1.686L14 8.7V3.23a4.216 4.216 0 01-.781.616z" fill="#595C64"/><path d="M12.75.015H1.252C.85.015.541.137.325.383.11.628.001.935.001 1.303c0 .298.143.62.43.967.286.347.591.62.914.818.177.113.71.45 1.602 1.01a519.81 519.81 0 012.046 1.291l.117.076.215.14c.17.111.31.201.422.27.112.068.248.145.407.23.158.085.308.149.449.191.14.042.27.064.39.064h.016c.12 0 .25-.022.39-.064.141-.042.29-.106.45-.191a8.501 8.501 0 00.828-.5 51.841 51.841 0 01.332-.216c.17-.107.435-.273.79-.498l2.866-1.803c.38-.24.698-.531.953-.871.255-.34.383-.696.383-1.07a1.04 1.04 0 00-.371-.8 1.274 1.274 0 00-.88-.332z" fill="#595C64"/></svg><svg fill="none" viewBox="0 0 45 45" id="makeCall" xmlns="http://www.w3.org/2000/svg"><path opacity=".2" stroke="#595C64" d="M.5.5h44v44H.5z"/><g clip-path="url(#azclip0_4101:604)"><path d="M28.731 25.484l-1.853-1.854c-.37-.367-.98-.356-1.363.026l-.933.933a27.94 27.94 0 01-.184-.102c-.59-.327-1.397-.775-2.246-1.624-.852-.852-1.3-1.66-1.628-2.25l-.1-.18.626-.626.308-.308c.383-.383.394-.994.025-1.363l-1.853-1.853c-.368-.369-.98-.357-1.362.025l-.523.526.015.014a3.021 3.021 0 00-.43.759c-.101.264-.164.517-.192.77-.245 2.029.682 3.883 3.198 6.398 3.478 3.478 6.28 3.215 6.401 3.202a3.127 3.127 0 001.529-.622l.011.01.53-.518c.381-.383.392-.994.024-1.363z" fill="#202020"/></g><defs><clipPath id="azclip0_4101:604"><path fill="#fff" transform="translate(17 16)" d="M0 0h12v12H0z"/></clipPath></defs></svg><svg fill="none" viewBox="0 0 45 45" id="measurer01" xmlns="http://www.w3.org/2000/svg"><path fill-rule="evenodd" clip-rule="evenodd" d="M0 .833C0 .373.373 0 .833 0h43.334c.46 0 .833.373.833.833v43.473a.694.694 0 01-1.389 0V5.694H30.278V41.39c0 .46-.373.833-.834.833h-5.138v1.945c0 .46-.373.833-.834.833H.833A.833.833 0 010 44.167V.833zm24.306 40h4.583v-8.125h-4.583v8.125zm0-9.514h4.583V19.444h-4.583V31.32zm0-13.263h4.583V5.694h-4.583v12.362zm-1.39-12.362h-17.5v7.709h17.5V5.694zm0 9.098h-17.5v11.736h17.5V14.792zm0 13.125h-17.5V43.61h17.5V27.917zM4.029 43.61V5.694h-2.64v37.917h2.64zM1.388 4.306h42.223V1.389H1.39v2.917z" fill="#F46B2A"/></svg><svg fill="none" viewBox="0 0 51 43" id="measurer02" xmlns="http://www.w3.org/2000/svg"><path d="M.846 32.619h49.308a.85.85 0 01.598.245c.159.157.248.37.248.593v8.597c0 .222-.09.435-.248.593a.85.85 0 01-.598.245H.846a.85.85 0 01-.598-.245.834.834 0 01-.248-.593v-8.597c0-.222.09-.436.248-.593a.85.85 0 01.598-.245zm.846 8.596h5.342v-3.788c0-.222.089-.436.247-.593a.85.85 0 011.197 0c.158.157.248.37.248.593v3.788h4.18V38.83c0-.222.09-.436.248-.593a.85.85 0 011.196 0c.159.157.248.37.248.593v2.386h4.183v-3.79c0-.221.089-.435.247-.592a.85.85 0 011.197 0c.158.157.247.37.247.593v3.788h4.182V38.83c0-.222.09-.436.248-.593a.85.85 0 011.196 0c.159.157.248.37.248.593v2.386h4.181v-3.79c0-.221.09-.435.248-.592a.85.85 0 011.197 0c.158.157.247.37.247.593v3.788h4.183V38.83c0-.222.089-.436.248-.593a.85.85 0 011.196 0c.159.157.248.37.248.593v2.386h4.18v-3.79c0-.221.09-.435.248-.592a.85.85 0 011.197 0c.158.157.247.37.247.593v3.788h5.342v-6.92H1.692v6.92zM12.911 18.152a5.332 5.332 0 01-2.943-.885 5.26 5.26 0 01-1.95-2.356 5.205 5.205 0 01-.302-3.033 5.235 5.235 0 011.45-2.687 5.312 5.312 0 012.712-1.437 5.342 5.342 0 013.06.299 5.287 5.287 0 012.378 1.933c.582.863.893 1.878.893 2.916a5.231 5.231 0 01-1.554 3.71 5.329 5.329 0 01-3.744 1.54zm0-8.823c-.713 0-1.41.21-2.003.603a3.58 3.58 0 00-1.327 1.603 3.542 3.542 0 00.781 3.893 3.635 3.635 0 003.929.774 3.598 3.598 0 001.618-1.315 3.55 3.55 0 00.608-1.985 3.56 3.56 0 00-1.058-2.525 3.626 3.626 0 00-2.548-1.048z" fill="#F46929"/><path d="M50.154 24.088H29.441v.77c0 .222-.09.435-.248.593a.85.85 0 01-.598.245H12.91c-2.554 0-5.05-.75-7.173-2.156a12.82 12.82 0 01-4.755-5.742 12.687 12.687 0 01-.734-7.392 12.759 12.759 0 013.533-6.551 12.948 12.948 0 016.61-3.502 13.02 13.02 0 017.46.729 12.887 12.887 0 015.795 4.712 12.713 12.713 0 012.175 7.108v4.23h2.773a.85.85 0 01.598.245c.159.157.248.37.248.593v.853h19.867v-.426c0-.222.09-.436.248-.593a.85.85 0 011.196 0c.159.157.248.37.248.593v4.852c0 .223-.09.436-.248.593a.85.85 0 01-.598.246zM24.13 12.902c0-2.199-.658-4.348-1.89-6.177a11.198 11.198 0 00-5.035-4.094 11.314 11.314 0 00-6.482-.633 11.251 11.251 0 00-5.745 3.043 11.087 11.087 0 00-3.07 5.692 11.024 11.024 0 00.638 6.424 11.14 11.14 0 004.132 4.99 11.292 11.292 0 006.233 1.873h11.22V12.902zm3.62 5.906h-1.928v5.212h1.927v-5.212zM29.44 20.5v1.91h19.867V20.5H29.441z" fill="#F46929"/></svg><svg fill="none" viewBox="0 0 44 46" id="measurer03" xmlns="http://www.w3.org/2000/svg"><path d="M38.69 16.867H20.483c-.604 0-1.183.242-1.61.673a2.312 2.312 0 00-.666 1.627v3.066c0 .61.24 1.195.666 1.627a2.264 2.264 0 001.61.673H38.69c.603 0 1.182-.242 1.609-.673a2.312 2.312 0 00.666-1.627v-3.066c0-.61-.24-1.195-.666-1.627a2.264 2.264 0 00-1.61-.673zm.758 5.366c0 .204-.08.399-.222.543a.755.755 0 01-.536.224H20.483a.755.755 0 01-.537-.224.771.771 0 01-.222-.543v-3.066c0-.204.08-.399.222-.542a.755.755 0 01.537-.225H38.69c.2 0 .394.08.536.225a.771.771 0 01.222.542v3.066zM23.517 27.6h-4.552a.755.755 0 00-.536.225.77.77 0 00-.222.542v4.6c0 .203.08.398.222.542a.754.754 0 00.536.224h4.552c.201 0 .394-.08.537-.224a.771.771 0 00.222-.542v-4.6a.771.771 0 00-.222-.542.755.755 0 00-.537-.225zm-.758 4.6h-3.035v-3.067h3.035V32.2zM23.517 35.267h-4.552a.755.755 0 00-.536.224.77.77 0 00-.222.542v4.6c0 .204.08.399.222.542a.754.754 0 00.536.225h4.552c.201 0 .394-.08.537-.225a.771.771 0 00.222-.542v-4.6a.77.77 0 00-.222-.542.755.755 0 00-.537-.224zm-.758 4.6h-3.035V36.8h3.035v3.067zM31.862 27.6H27.31a.755.755 0 00-.536.225.77.77 0 00-.222.542v4.6c0 .203.08.398.222.542a.754.754 0 00.536.224h4.552c.201 0 .394-.08.537-.224a.77.77 0 00.222-.542v-4.6a.77.77 0 00-.223-.542.755.755 0 00-.536-.225zm-.758 4.6h-3.035v-3.067h3.035V32.2zM31.862 35.267H27.31a.754.754 0 00-.536.224.77.77 0 00-.222.542v4.6c0 .204.08.399.222.542a.754.754 0 00.536.225h4.552c.201 0 .394-.08.537-.225a.77.77 0 00.222-.542v-4.6a.77.77 0 00-.223-.542.754.754 0 00-.536-.224zm-.758 4.6h-3.035V36.8h3.035v3.067zM40.207 27.6h-4.552a.755.755 0 00-.536.225.77.77 0 00-.222.542v4.6c0 .203.08.398.222.542a.754.754 0 00.536.224h4.552c.201 0 .394-.08.536-.224a.771.771 0 00.222-.542v-4.6a.771.771 0 00-.222-.542.755.755 0 00-.536-.225zm-.759 4.6h-3.034v-3.067h3.034V32.2zM40.207 35.267h-4.552a.754.754 0 00-.536.224.77.77 0 00-.222.542v4.6c0 .204.08.399.222.542a.754.754 0 00.536.225h4.552c.201 0 .394-.08.536-.225a.771.771 0 00.222-.542v-4.6a.77.77 0 00-.222-.542.755.755 0 00-.536-.224zm-.759 4.6h-3.034V36.8h3.034v3.067z" fill="#F36327"/><path d="M43.241 0H2.276a.755.755 0 00-.537.225.77.77 0 00-.222.542v19.307c-.442.158-.825.45-1.097.837A2.316 2.316 0 000 22.233v18.4c0 .61.24 1.195.667 1.627a2.264 2.264 0 001.609.673h12.972a3.847 3.847 0 001.32 2.202 3.775 3.775 0 002.397.865h21.242a3.778 3.778 0 002.68-1.124A3.858 3.858 0 0044 42.166V.767a.77.77 0 00-.222-.541A.755.755 0 0043.24 0zm-.758 1.533v13.054a3.741 3.741 0 00-1.517-.71V6.9a.77.77 0 00-.223-.542.754.754 0 00-.536-.225 2.264 2.264 0 01-1.61-.673 2.312 2.312 0 01-.666-1.627.77.77 0 00-.222-.542.754.754 0 00-.537-.224H8.345a.755.755 0 00-.537.224.77.77 0 00-.222.542c0 .61-.24 1.195-.666 1.627a2.264 2.264 0 01-1.61.673.755.755 0 00-.536.225.77.77 0 00-.222.542v7.667c0 .203.08.398.222.542a.754.754 0 00.536.224c.604 0 1.183.243 1.61.674.426.431.666 1.016.666 1.626 0 .204.08.399.222.542a.755.755 0 00.537.225h6.827v1.533H3.034v-18.4h39.449zM2.276 21.467h12.896v4.6H1.517v-3.834a.77.77 0 01.222-.542.754.754 0 01.537-.224zM15.172 27.6v1.533H1.517V27.6h13.655zM1.517 40.633v-9.966h13.655V41.4H2.276a.755.755 0 01-.537-.225.77.77 0 01-.222-.542zm13.731-23.766h-6.22a3.856 3.856 0 00-1.036-1.944 3.791 3.791 0 00-1.923-1.046V7.59a3.791 3.791 0 001.923-1.047A3.856 3.856 0 009.028 4.6H36.49c.15.736.51 1.412 1.035 1.943a3.791 3.791 0 001.923 1.047v6.21H27.552a5.416 5.416 0 00-.322-5.205 5.333 5.333 0 00-1.955-1.831 5.266 5.266 0 00-5.16.071A5.336 5.336 0 0018.21 8.72a5.408 5.408 0 00-.18 5.212 3.785 3.785 0 00-1.807 1.064 3.847 3.847 0 00-.975 1.87zM19.75 13.8a3.803 3.803 0 01-.785-2.3c0-1.017.4-1.992 1.111-2.71a3.773 3.773 0 012.683-1.123c1.006 0 1.97.404 2.682 1.122a3.854 3.854 0 011.11 2.711 3.803 3.803 0 01-.784 2.3H19.75zm22.733 28.367c0 .61-.24 1.195-.667 1.626a2.264 2.264 0 01-1.61.674h-21.24a2.264 2.264 0 01-1.61-.674 2.312 2.312 0 01-.666-1.626V17.633c0-.61.24-1.195.666-1.626a2.264 2.264 0 011.61-.674h21.24c.604 0 1.183.243 1.61.674.427.431.667 1.016.667 1.626v24.534z" fill="#F36327"/></svg><svg fill="none" viewBox="0 0 34 15" id="new" xmlns="http://www.w3.org/2000/svg"><path d="M3 0h31l-3 15H0L3 0z" fill="#F36327"/><path d="M13.416 11h-1.465L9.1 6.322V11H7.635V3.89H9.1l2.856 4.688V3.891h1.46V11zm3.618.098c-.775 0-1.406-.238-1.894-.713-.485-.475-.728-1.109-.728-1.9V8.35c0-.531.103-1.005.308-1.421.205-.42.494-.742.869-.967a2.446 2.446 0 011.289-.342c.723 0 1.29.228 1.704.684.417.455.625 1.102.625 1.938v.576h-3.364c.045.345.182.622.41.83.231.209.522.313.874.313.544 0 .968-.197 1.274-.59l.694.776c-.212.299-.498.533-.86.703-.361.166-.761.249-1.2.249zm-.161-4.336a.891.891 0 00-.684.283c-.172.189-.283.459-.332.81h1.963v-.112c-.006-.312-.09-.553-.254-.722-.162-.173-.393-.26-.693-.26zm7.734 2.319l.694-3.364h1.362L25.315 11h-1.181l-1.001-3.325L22.132 11h-1.177l-1.348-5.283h1.363l.688 3.36.967-3.36h1.02l.962 3.364z" fill="#fff"/></svg><svg fill="none" viewBox="0 0 12 12" id="tel" xmlns="http://www.w3.org/2000/svg"><path d="M11.731 9.47L9.878 7.617c-.37-.368-.98-.357-1.363.025l-.933.934a27.26 27.26 0 01-.185-.103c-.59-.327-1.396-.774-2.245-1.624-.852-.852-1.3-1.66-1.628-2.25-.034-.062-.067-.123-.1-.18l.626-.626.309-.308c.382-.383.393-.994.024-1.362L2.53.269C2.162-.1 1.55-.088 1.168.295L.645.82.66.834a3.02 3.02 0 00-.43.76c-.101.264-.164.516-.192.77-.245 2.028.682 3.882 3.198 6.398 3.478 3.477 6.28 3.214 6.401 3.202a3.131 3.131 0 001.529-.623l.011.01.53-.518c.381-.382.392-.994.024-1.363z" fill="#fff"/></svg><svg fill="none" viewBox="0 0 17 10" id="vk" xmlns="http://www.w3.org/2000/svg"><path d="M16.91 9.031a1.177 1.177 0 00-.058-.114c-.295-.548-.858-1.22-1.69-2.017l-.018-.018-.009-.01-.009-.008h-.008c-.378-.371-.617-.62-.717-.749-.184-.243-.225-.49-.124-.739.07-.189.336-.587.796-1.195.242-.323.434-.581.575-.776 1.021-1.4 1.464-2.293 1.328-2.683l-.053-.09c-.035-.056-.126-.106-.274-.151a1.353 1.353 0 00-.567-.023l-2.549.018a.321.321 0 00-.177.005l-.115.027-.044.023-.035.027a.4.4 0 00-.098.096.634.634 0 00-.088.16c-.278.736-.593 1.42-.947 2.053-.219.377-.42.704-.602.981-.183.277-.337.48-.46.611-.124.131-.236.236-.337.315-.1.08-.177.113-.23.1a6.25 6.25 0 01-.15-.036.6.6 0 01-.2-.224 1.024 1.024 0 01-.101-.356 4.047 4.047 0 01-.031-.37 7.953 7.953 0 01.004-.437c.006-.189.01-.317.01-.383 0-.232.003-.483.012-.753l.022-.644c.006-.158.01-.325.01-.502 0-.176-.011-.314-.032-.415-.02-.1-.051-.197-.092-.292A.488.488 0 009.67.243 1.006 1.006 0 009.374.12C9.06.047 8.663.007 8.179 0 7.08-.01 6.376.062 6.063.221a1.199 1.199 0 00-.336.273c-.106.134-.121.207-.045.219.355.055.605.186.753.392l.053.11c.041.08.083.22.124.42.041.2.068.423.08.666.029.444.029.824 0 1.14a14 14 0 01-.085.74 1.515 1.515 0 01-.225.63.155.155 0 01-.044.045.646.646 0 01-.24.046c-.082 0-.182-.043-.3-.128a2.15 2.15 0 01-.368-.351A4.697 4.697 0 015 3.797a11.02 11.02 0 01-.495-.949l-.141-.264A23.03 23.03 0 014 1.84c-.154-.326-.29-.64-.407-.945A.6.6 0 003.38.603L3.337.576a.917.917 0 00-.345-.137L.567.457C.319.457.15.515.062.631L.027.685A.303.303 0 000 .832c0 .066.018.149.053.246.354.858.74 1.685 1.155 2.482.416.797.778 1.439 1.084 1.925.307.487.62.947.939 1.378.318.432.53.71.632.83.104.123.185.214.244.275l.221.219c.142.146.35.32.624.524.275.204.579.405.912.603.333.197.721.359 1.164.483a3.91 3.91 0 001.292.15h1.018c.206-.017.363-.084.47-.2l.034-.046a.615.615 0 00.067-.168.954.954 0 00.03-.251 3.097 3.097 0 01.058-.707c.044-.21.095-.368.15-.475a1.165 1.165 0 01.342-.401.57.57 0 01.07-.032c.142-.049.309-.002.5.141.192.143.372.32.54.53.169.21.37.445.607.707.236.261.442.456.62.584l.176.11c.118.072.272.14.46.2.19.061.354.076.496.046l2.266-.037c.224 0 .399-.038.522-.114.124-.076.198-.16.222-.25a.727.727 0 00.004-.311 1.173 1.173 0 00-.062-.242z" fill="#fff"/></svg><svg fill="none" viewBox="0 0 12 12" id="workTime" xmlns="http://www.w3.org/2000/svg"><g opacity=".5" clip-path="url(#bgclip0_4109:613)"><path d="M6 0a6 6 0 11-.001 12 6 6 0 010-12zm-.415 6.734c0 .015.003.031.005.047.001.012.002.024.005.035.002.013.007.025.01.037l.016.043.003.007c.009.02.02.037.03.055l.003.003c.013.019.028.036.044.053l.013.012a.397.397 0 00.044.037l.014.01c.02.013.04.024.062.034l.015.005a.417.417 0 00.15.03c.006 0 .01-.002.016-.003a.417.417 0 00.07-.007l.022-.007a.421.421 0 00.062-.021c.002-.001.005-.001.007-.003l2.3-1.085a.415.415 0 00-.353-.75l-1.709.805V2.49a.415.415 0 00-.83 0v4.244z" fill="#595C64"/></g><defs><clipPath id="bgclip0_4109:613"><path fill="#fff" transform="matrix(-1 0 0 1 12 0)" d="M0 0h12v12H0z"/></clipPath></defs></svg></svg>